<?xml version="1.0" encoding="utf-8"?>
<!-- Generator: Adobe Illustrator 16.0.0, SVG Export Plug-In . SVG Version: 6.00 Build 0)  -->
<!DOCTYPE svg PUBLIC "-//W3C//DTD SVG 1.1//EN" "http://www.w3.org/Graphics/SVG/1.1/DTD/svg11.dtd">
<svg version="1.1" id="Layer_1" xmlns="http://www.w3.org/2000/svg" xmlns:xlink="http://www.w3.org/1999/xlink" x="0px" y="0px"
	 width="174.688px" height="36.25px" viewBox="0 0 174.688 36.25" enable-background="new 0 0 174.688 36.25" xml:space="preserve">
<g>
	<g>
		<g>
			<path fill="#23CE6B" d="M33.792,10.274c-7.27,6.675-9.598,19.04-10.298,24.623c7.077-2.244,12.204-8.864,12.204-16.682
				C35.698,15.354,35.008,12.658,33.792,10.274z"/>
		</g>
		<g>
			<path fill="#23CE6B" d="M23.213,22.423c0.671-8.062,5.716-13.675,8.039-15.86c-3.204-3.588-7.864-5.848-13.054-5.848
				c-3.924,0-7.548,1.292-10.467,3.475C18.914,8.329,23.213,22.423,23.213,22.423z"/>
		</g>
		<g>
			<g>
				<path fill="#23CE6B" d="M1.872,11.917c-0.754,1.954-1.172,4.076-1.172,6.298c0,9.665,7.835,17.5,17.499,17.5
					c0.967,0,1.916-0.082,2.84-0.233C20.363,21.765,8.747,14.093,1.872,11.917z"/>
			</g>
		</g>
	</g>
</g>
<g>
	<path fill="#232323" d="M53.714,24.502l5.654-18.759h5.722l-8.686,24.943h-5.362L42.39,5.744h5.705L53.714,24.502z"/>
	<path fill="#232323" d="M82.443,19.877h-9.867v6.681h11.58v4.128h-16.72V5.744h16.686v4.162H72.576v5.945h9.867V19.877z"/>
	<path fill="#232323" d="M107.455,30.687h-5.139L92.311,14.274v16.412h-5.14V5.744h5.14l10.022,16.446V5.744h5.122V30.687z"/>
	<path fill="#232323" d="M131.525,22.378c-0.193,2.684-1.185,4.797-2.972,6.339c-1.788,1.542-4.143,2.313-7.067,2.313
		c-3.197,0-5.713-1.076-7.546-3.229c-1.833-2.152-2.75-5.107-2.75-8.865V17.41c0-2.398,0.422-4.512,1.267-6.339
		c0.846-1.828,2.054-3.229,3.624-4.206c1.571-0.977,3.395-1.464,5.474-1.464c2.878,0,5.197,0.771,6.956,2.313
		c1.758,1.542,2.774,3.707,3.049,6.493h-5.139c-0.126-1.61-0.574-2.777-1.345-3.503c-0.771-0.725-1.944-1.088-3.521-1.088
		c-1.713,0-2.995,0.614-3.846,1.842c-0.851,1.228-1.288,3.132-1.311,5.713v1.885c0,2.695,0.408,4.665,1.226,5.91
		c0.815,1.245,2.104,1.868,3.862,1.868c1.587,0,2.773-0.362,3.555-1.088c0.782-0.725,1.23-1.847,1.345-3.366H131.525z"/>
	<path fill="#232323" d="M149.907,19.877h-9.868v6.681h11.58v4.128H134.9V5.744h16.686v4.162h-11.547v5.945h9.868V19.877z"/>
	<path fill="#232323" d="M163.869,21.556h-4.094v9.131h-5.14V5.744h9.269c2.946,0,5.218,0.657,6.818,1.97
		c1.598,1.313,2.397,3.169,2.397,5.568c0,1.702-0.368,3.121-1.104,4.257c-0.736,1.137-1.854,2.042-3.35,2.715l5.397,10.193v0.24
		h-5.517L163.869,21.556z M159.775,17.393h4.146c1.291,0,2.289-0.328,2.997-0.985c0.708-0.656,1.063-1.562,1.063-2.715
		c0-1.176-0.335-2.102-1.003-2.775c-0.669-0.674-1.693-1.011-3.074-1.011h-4.129V17.393z"/>
</g>
</svg>
