<?xml version="1.0" encoding="utf-8"?>
<!-- Generator: Adobe Illustrator 23.0.3, SVG Export Plug-In . SVG Version: 6.00 Build 0)  -->
<svg version="1.1" id="图层_1" xmlns="http://www.w3.org/2000/svg" xmlns:xlink="http://www.w3.org/1999/xlink" x="0px" y="0px"
	 viewBox="0 0 100 28" style="enable-background:new 0 0 100 28;" xml:space="preserve">
<style type="text/css">
	.st0{fill:#FFFFFF;}
	.st1{fill:#FF4713;}
	.st2{fill:#9E9F9F;}
</style>
<polygon class="st2" points="34.43,6.31 37.64,6.31 29.87,14.81 39.55,24.23 36.05,24.23 26.59,14.84 "/>
<path class="st1" d="M53.77,8.47c-1.76-1.75-3.96-2.63-6.6-2.63c-2.64,0-4.83,0.88-6.56,2.63c-1.73,1.75-2.59,3.97-2.59,6.65
	c0,2.61,0.86,4.78,2.58,6.51c1.72,1.73,3.86,2.6,6.44,2.6c2.7,0,4.94-0.87,6.71-2.6c1.77-1.73,2.66-3.92,2.66-6.56
	C56.41,12.43,55.53,10.23,53.77,8.47 M52.13,19.94c-1.32,1.33-2.97,1.99-4.94,1.99c-1.97,0-3.6-0.65-4.91-1.95
	c-1.31-1.3-1.96-2.93-1.96-4.9c0-2.02,0.65-3.69,1.95-4.99c1.3-1.3,2.97-1.95,4.99-1.95c1.92,0,3.54,0.66,4.86,1.97
	c1.32,1.32,1.98,2.94,1.98,4.86C54.11,16.96,53.45,18.61,52.13,19.94"/>
<path class="st2" d="M60.03,24.23V6.33h6.04c2.44,0,4.37,0.37,5.79,1.1c1.42,0.73,2.55,1.81,3.39,3.23
	c0.84,1.42,1.26,2.97,1.26,4.64c0,1.2-0.23,2.34-0.69,3.44c-0.46,1.09-1.12,2.06-1.98,2.89c-0.87,0.86-1.89,1.5-3.04,1.94
	c-0.68,0.27-1.3,0.44-1.86,0.53c-0.56,0.09-1.64,0.13-3.23,0.13H60.03z M65.81,8.62H62.6v13.33h3.29c1.28,0,2.28-0.09,2.99-0.26
	c0.71-0.18,1.3-0.4,1.78-0.67c0.47-0.27,0.91-0.6,1.3-0.99c1.27-1.28,1.9-2.9,1.9-4.86c0-1.92-0.65-3.49-1.95-4.71
	c-0.48-0.45-1.03-0.83-1.65-1.12c-0.62-0.29-1.21-0.48-1.76-0.58C67.93,8.66,67.04,8.62,65.81,8.62"/>
<polygon class="st2" points="83.99,6.2 85.79,6.2 93.83,24.23 91.2,24.23 84.87,10.14 78.93,24.23 76.29,24.23 "/>
<polygon class="st2" points="18.02,6.31 18.02,21.15 6.29,6.31 3.86,6.31 3.86,24.23 6.29,24.23 6.29,9.39 18.02,24.23 20.46,24.23 
	20.46,6.31 "/>
<rect x="24.15" y="6.31" class="st2" width="2.44" height="17.93"/>
<path class="st2" d="M96.06,10.44c-1.27,0-2.3-1.03-2.3-2.3c0-1.27,1.03-2.3,2.3-2.3c1.27,0,2.3,1.03,2.3,2.3
	C98.36,9.41,97.33,10.44,96.06,10.44 M96.06,6.24c-1.05,0-1.9,0.85-1.9,1.91c0,1.05,0.85,1.9,1.9,1.9c1.05,0,1.91-0.85,1.91-1.9
	C97.97,7.09,97.11,6.24,96.06,6.24"/>
<path class="st2" d="M96.61,9.56l-0.58-1.07h-0.39v1.07h-0.57V6.73h0.99c0.59,0,1.06,0.21,1.06,0.86c0,0.42-0.21,0.69-0.54,0.81
	l0.66,1.16H96.61z M95.64,8.04h0.37c0.36,0,0.56-0.15,0.56-0.46c0-0.31-0.2-0.41-0.56-0.41h-0.37V8.04z"/>
</svg>
