<svg id="图层_1" data-name="图层 1" xmlns="http://www.w3.org/2000/svg" viewBox="0 0 80 80"><defs><style>.cls-1{fill:#fe6c07;}.cls-2{fill:#fff;}</style></defs><rect class="cls-1" x="-0.03" y="0.24" width="80" height="80" rx="33.26"/><path class="cls-2" d="M48.3,31.62h3a1.79,1.79,0,0,1,1.79,1.79v5.75h6.47A5.19,5.19,0,0,0,63,34.77c0-2.43-2.67-3.9-3.41-3.9H48.3V29.38a1.83,1.83,0,0,1,1.82-1.82H61c.91,0,6.22,2.57,6.22,7.45S61.88,42.46,61,42.46H48.3Z"/><path class="cls-2" d="M32.15,27.56h-3v9.25h0v5.66h4.79V29.34A1.78,1.78,0,0,0,32.15,27.56Z"/><polygon class="cls-2" points="47.89 27.56 42.25 27.56 34.04 35.01 42.25 42.47 47.89 42.47 39.68 35.01 47.89 27.56"/><path class="cls-2" d="M28.41,36.07l-8.5-8.51H15v14.9h3a1.8,1.8,0,0,0,1.81-1.8V33.22l8.58,8.58Z"/><path class="cls-2" d="M17.56,47.86s.06.59.39.66.44-.14.48-.66c0,0,.5-1.77,5.37-2.6,4.26-.73,5.06.84,5.19,1.24a1.16,1.16,0,0,1,0,.18A3,3,0,0,1,26.61,50a9.49,9.49,0,0,1-3.91.54,13.42,13.42,0,0,1,1.14-2.34s1-.18-.26-1.8c0,0-.65-.63-.83.79l-3.41,6.69s-1.06,1.52-.22,2.24c0,0,1.14.86,1.06-.81,0,0,1-3,2.18-4,0,0,7.94,1,8.28-4,0,0,.58-3.4-4.17-3,0,0-4.77.12-8,2.49C18.44,46.73,17.45,47.14,17.56,47.86Z"/><path class="cls-2" d="M29.27,47.86s.06.59.39.66.44-.14.48-.66c0,0,.5-1.77,5.37-2.6,3.67-.63,4.77.44,5.09,1a1.15,1.15,0,0,1,.15.54A3,3,0,0,1,38.32,50a13.75,13.75,0,0,1-3.33.57.39.39,0,0,1-.37-.54,9.53,9.53,0,0,1,.93-1.83s1-.18-.26-1.8c0,0-.65-.63-.83.79l-3.41,6.69s-1.06,1.52-.22,2.24c0,0,1.14.86,1.06-.81a12.45,12.45,0,0,1,2-3.87.4.4,0,0,1,.31-.1c1.17.11,7.8.55,8.11-4,0,0,.58-3.4-4.17-3,0,0-4.77.12-8,2.49C30.15,46.73,29.17,47.14,29.27,47.86Z"/><path class="cls-2" d="M43.37,48.28s-.48,0-.5-.56.06-.73.63-1.1c0,0,2.49-1.28,3.92-1.91s3-.7,3.25-.31l0,.06s.68.63-.37,1.76c0,0-2.1,2.25-2.62,3l0,0s3-.83,3-.22c0,0,.24.68-.15,1s-.39.38-1.35-.08-2.31.41-3,1.73-2.52,3.76-3.11,5.76c0,0-.31.91-.11,1.16,0,0,.14.33.46,0,0,0,.49.22-.13.84s-2-.56-1.56-2.14a29.78,29.78,0,0,1,3-6.11.14.14,0,0,0-.16-.22A13.93,13.93,0,0,0,41,52.62l-.05.05c-.09.18-.6,1.1-.95.49s.43-1.3.66-1.36,3.71-1.73,5-2.1l0,0a6.42,6.42,0,0,0,1.3-1.25S49,46,49.56,45.23c0,0,.26-.36-.8-.13,0,0-3.34.87-4.76,2.27a.13.13,0,0,0,0,.07C43.91,47.64,43.71,48.43,43.37,48.28Z"/><ellipse class="cls-2" cx="51.88" cy="50.81" rx="0.4" ry="0.52"/><path class="cls-2" d="M48.81,54.12A14.42,14.42,0,0,1,50.33,53s.64-.58.87.12c0,0,.17.45-.42,1.82,0,0-.28.49.12.28a6.93,6.93,0,0,0,1.42-.92s.64-.48.2.4a4.13,4.13,0,0,1-1.94,1.47s-1,.33-.66-1.06A8.56,8.56,0,0,1,50.3,54s.27-.47-.37-.1a4,4,0,0,0-1,.71S48.47,54.71,48.81,54.12Z"/><path class="cls-2" d="M63,54.5a2.3,2.3,0,0,1-1,.75s-.29,0-.12-.57c0,0,.21-1.13-.34-1.25,0,0-.41-.32-1.84,1.18,0,0-.23.23-.14-.23v0c.1-.51,0-1.52-.58-1.4,0,0-.58,0-1.6,1.06,0,0,.17-.82-.44-.77,0,0-.63-.18-2.45,2,0,0-.87.86-1.07.42a1.45,1.45,0,0,1,.07-1.3s.29.2.86-.54a18.22,18.22,0,0,0,2.54-4.43s.14-.8-.55-.68c0,0-1.09.09-3.05,4,0,0-1.14,2.19-.43,3.25a1,1,0,0,0,1.47.13c.91-.68,1.71-2,2.28-2,0,0,.34,0-.47.91,0,0-.78.94-.08,1.36,0,0,.31.21.65-.65,0,0,1.4-2,1.92-1.91,0,0,.33-.18.08,1.25,0,0-.23.91.4,1a.37.37,0,0,0,.4-.22l0-.07c.15-.35,1.1-1.53,1.4-1.47,0,0,.22-.07.06,1,0,0-.07,1,.74,1,0,0,.25.16,1.63-1.33C63.31,54.84,63.39,54.27,63,54.5Zm-7.23-4.43c.55-.75.48-.32.48-.32a14.38,14.38,0,0,1-2.54,3.67A12.21,12.21,0,0,1,55.73,50.07Z"/></svg>