<?xml version="1.0" encoding="utf-8"?>
<!-- Generator: Adobe Illustrator 23.0.3, SVG Export Plug-In . SVG Version: 6.00 Build 0)  -->
<svg version="1.1" id="图层_1" xmlns="http://www.w3.org/2000/svg" xmlns:xlink="http://www.w3.org/1999/xlink" x="0px" y="0px"
	 viewBox="0 0 400 400" style="enable-background:new 0 0 400 400;" xml:space="preserve">
<style type="text/css">
	.st0{fill:#FF4713;}
	.st1{fill:#231815;}
</style>
<g>
	<path class="st0" d="M241.11,10.51h-82.19c-39.78,0-77.18,15.6-105.3,43.92c-28.11,28.32-43.6,65.96-43.6,106.01v82.64
		c0,40.1,15.49,77.79,43.6,106.13c28.12,28.33,65.52,43.94,105.3,43.94h82.19c82.11,0,148.9-67.32,148.9-150.06v-82.64
		C390.01,77.77,323.22,10.51,241.11,10.51z M109.63,228.68c-4.7,0.14-9.54,0.28-14.66,0.28c-5.12,0-10.93,0-17.15-0.14l-0.14-0.56
		c6.5-0.83,12.58-1.67,18.25-2.51c5.94-0.83,11.2-1.67,16.04-2.64c4.84-0.83,9.13-1.67,12.86-2.64c3.87-0.84,6.78-1.67,9.13-2.51
		l8.99,9.05l-5.39-0.28c-4.98,0.42-9.68,0.84-14.24,1.26C118.76,228.26,114.33,228.54,109.63,228.68z M119.59,237.73
		c-4.29,0-7.88,3.48-7.88,7.93c0-4.45-3.45-7.93-7.88-7.93c4.43,0,7.88-3.62,7.88-7.94C111.7,234.11,115.3,237.73,119.59,237.73z
		 M99.26,238.43c0,1.67-0.55,3.07-1.8,4.32c-1.24,1.12-2.63,1.67-4.42,1.67c-1.11,0-1.8-0.14-2.21-0.56
		c-0.56-0.42-0.83-1.12-0.97-2.09c-0.27-1.25-0.55-2.37-0.69-3.35c-0.28-0.97-0.56-1.94-0.83-2.64c-0.14-0.84-0.56-1.67-0.83-2.37
		c-0.28-0.84-0.69-1.54-1.24-2.37l0.27-0.27c2.63,0.55,4.84,0.97,6.37,1.53c1.66,0.56,3.04,1.12,4,1.81
		c0.97,0.69,1.53,1.39,1.94,2.09C99.11,236.9,99.26,237.73,99.26,238.43z M70.41,194.84H42.7v-3.07c1.93-0.28,3.45-0.56,4.56-1.11
		c1.25-0.28,2.49-1.12,3.87-2.23c3.32-2.65,6.5-7.52,9.68-14.62l20.74-47.49h1.8l26.41,57.79c0.83,1.67,1.8,3.21,2.77,4.46
		c1.11,1.12,2.21,1.95,3.6,2.37c1.24,0.56,2.76,0.83,4.56,0.83h1.8v3.07H84.46v-3.07h4.98c2.35,0,4.29-0.41,5.39-0.97
		c1.11-0.7,1.66-1.67,1.66-3.2c0-0.84-0.14-1.95-0.69-3.2c-0.41-1.26-1.39-3.49-2.9-6.82c-0.14-0.14-0.28-0.42-0.41-0.84
		c-0.28-0.56-0.42-0.98-0.69-1.39l-0.42-0.97H64.75l-1.52,3.48c-0.69,1.67-1.11,3.34-1.11,5.01c0,1.54,0.41,2.92,1.24,4.32
		c0.83,1.53,1.8,2.51,3.18,3.35c0.83,0.41,1.52,0.69,2.21,0.83c0.69,0.28,0.41,0.28,1.65,0.41V194.84z M141.44,257.37l-1.94,2.72
		h-34.85c-1,1.76-0.75,1.39-1.53,2.71c-0.41,0.84-0.55,0.92-0.96,1.89c-0.14,0.14-0.14,0.28-0.28,0.56h21.02l0.41-0.56l2.76-3
		l12.72,7.38l-4.15,2.37c-1.52,1.95-3.04,3.9-4.56,5.71c-1.51,1.67-3.18,3.34-4.84,4.73c6.08,1.67,13.96,2.37,23.23,2.64v0.42
		c-1.24,0.69-2.22,1.39-3.05,2.09c-0.83,0.56-1.52,1.4-2.21,2.23c-0.69,0.83-1.25,1.66-1.8,2.78c-0.56,1.11-1.11,2.5-1.8,4.04
		c-5.11-0.98-9.54-2.09-13.41-3.48c-3.73-1.26-7.05-2.79-9.82-4.6c-1.93,1.12-4.01,2.09-6.36,2.92c-2.21,0.85-4.7,1.68-7.33,2.37
		c-2.63,0.69-5.53,1.25-8.57,1.81c-3.18,0.42-6.64,0.98-10.37,1.25l-0.14-0.41c3.05-1.25,5.81-2.37,8.3-3.48
		c2.49-0.98,4.84-2.09,7.05-3.2c2.08-1.12,4.01-2.09,5.81-3.2c1.8-1.11,3.46-2.23,4.98-3.34c-1.8-1.95-3.32-4.04-4.7-6.4
		c-1.38-2.37-2.63-4.73-3.73-8.07h-0.14c-1.53,3.76-3.32,6.4-5.26,8.9c-1.94,2.65-4.01,5.01-6.22,7.1
		c-2.35,2.09-4.98,4.04-7.88,5.85c-2.9,1.67-5.94,3.34-9.54,5.01l-0.28-0.41c2.9-2.92,5.67-5.71,7.88-8.5
		c2.22-2.64,4.29-5.43,5.95-8.36c1.8-2.78,3.18-5.71,4.42-8.77c1.25-3.07,2.22-4.95,3.18-8.98H82.66v-3.69
		c-0.41,0.28-0.69,0.69-0.96,1.12c-1.11,1.25-2.63,1.94-4.56,1.94c-1.39,0-2.49-0.56-3.6-1.66c-0.96-0.98-1.52-2.37-1.52-3.9
		c0-1.54,0.28-2.79,0.69-3.62c0.55-0.69,1.25-1.4,2.21-2.09c1.8-0.97,3.18-1.95,4.15-3.2c0.97-1.25,1.8-2.79,2.49-4.73h0.28
		c0.41,0.69,0.83,1.53,1.25,2.37c0.28,0.97,0.69,1.95,0.96,3.34h38.31c0.97-3.48,1.8-6.54,2.49-9.19c0.55-2.64,1.1-5.29,1.38-8.08
		l13.27,5.85l-4.15,1.82c-1.94,1.81-3.87,3.34-5.81,4.87c-2.08,1.4-4.01,2.92-6.09,4.73h12.31l4.43-5.71l11.34,8.49l-4.98,1.39
		c-1.39,0.84-2.9,1.53-4.43,2.22c-1.51,0.56-3.18,1.12-4.84,1.54L141.44,257.37z M146.55,188.43c-1.25-0.27-2.49-0.55-3.6-0.55
		c-2.21,0-4.15,0.69-5.67,1.81c-1.66,1.12-2.63,2.78-3.18,5.01h-1.66v-30.5h1.66c0.69,5.43,2.9,7.26,6.64,11.71
		c2.21,2.51,4.98,5.02,8.43,7.24c3.45,2.23,7.05,3.9,10.78,5.02c3.88,1.25,7.47,1.95,10.79,1.95c3.04,0,5.81-0.55,8.44-1.53
		c2.49-0.97,4.42-2.37,5.8-4.17c1.39-1.82,2.08-2.29,2.08-4.52c0-2.36-0.97-4.45-2.77-6.4c-0.83-0.84-2.07-1.67-3.45-2.37
		c-1.39-0.7-3.18-1.54-5.4-2.23c-2.21-0.84-5.11-1.67-8.99-2.79l-4.7-1.25c-7.33-1.95-11.12-2.52-15.21-3.16
		c-3.18-1.11-5.67-2.22-7.47-3.48c-1.8-1.12-3.32-2.65-4.7-4.45c-1.94-2.51-2.9-5.15-2.9-8.22c0-3.76,1.1-6.96,3.32-9.89
		c2.07-2.92,5.11-5.15,9.13-6.82c3.73-1.68,8.02-2.51,12.86-2.51c7.05,0,14.38,2.09,22.12,6.13c2.63,1.25,4.56,1.95,5.39,1.95
		c2.49,0,4.29-1.81,5.26-5.43h1.66v22.56h-1.66c-1.94-5.43-4.15-7.61-6.65-10.68c-1.8-2.09-4.14-4.04-6.77-5.71
		c-2.77-1.53-5.81-2.79-9.27-3.76c-3.32-0.97-6.77-1.4-10.23-1.4c-2.63,0-4.98,0.28-6.91,1.12c-2.08,0.7-3.88,1.81-5.26,3.2
		c-0.96,0.98-1.66,2.09-2.35,3.35c-0.55,1.25-0.83,2.51-0.83,3.62c0,2.23,0.83,4.18,2.49,5.71c0.69,0.84,1.94,1.54,3.32,2.36
		c1.52,0.7,3.41,1.41,5.88,1.88c3.51,0.67,5.18,1.1,9.34,2.08c1.24,0.28,1.93,0.56,2.35,0.56l2.35,0.56l3.6,0.97
		c6.22,1.67,10.78,2.61,13.55,3.86c2.91,1.25,5.26,2.79,7.33,4.87c1.52,1.4,2.77,2.3,3.6,4.25c0.83,1.95,1.24,4.17,1.24,6.4
		c0,2.37-0.41,4.59-1.38,6.83c-0.97,2.22-2.35,4.32-4.16,5.99c-2.35,2.5-5.25,4.17-8.57,5.42c-3.32,1.12-7.19,1.82-11.62,1.82
		c-3.04,0-5.81-0.28-8.58-0.98c-2.63-0.56-5.81-1.67-9.68-3.34C149.87,189.54,147.93,188.85,146.55,188.43z M230.22,292.6
		c-2.63,1.11-6.08,1.81-10.51,1.81h-43.28c-4.01,0-6.92-0.98-8.71-2.93c-1.8-1.95-2.63-5.29-2.63-9.89v-29.25
		c-1.52,1.26-3.04,2.51-4.7,3.62c-1.52,1.11-3.18,2.37-4.98,3.62l-0.41-0.28c2.9-4.04,5.39-7.94,7.75-11.56
		c2.21-3.62,4.15-7.11,5.66-10.45c1.67-3.34,2.91-6.54,4.01-9.61c1.11-3.2,1.94-6.27,2.49-9.34l15.49,4.18l-4.16,2.37
		c-0.69,1.67-1.65,3.62-2.9,5.58h12.17l3.87-6.27l13.82,8.08l-4.84,1.95c-2.49,2.09-4.71,3.76-6.92,5.43
		c-2.07,1.54-4.15,3.21-6.22,5.02h17.29l3.18-6.96l12.87,6.27l-3.88,3.9v7.52c0,1.11,0.14,2.23,0.14,3.48v4.18
		c0.14,1.53,0.14,2.92,0.14,4.17c0,1.12-0.41,1.82-1.39,1.95c-1.25,0.41-2.76,0.56-4.29,0.56c-1.52,0.14-3.18,0.14-5.11,0.14v-3.65
		h-38.58v13.96c0,1.54,0.28,2.64,0.83,3.35c0.69,0.56,1.66,0.97,3.18,0.97h37.47c1.38,0,2.63-0.28,3.32-0.83
		c0.83-0.41,1.66-1.53,2.21-3.2l5.67-13.51l0.55,0.14l0.69,11.7c0.14,1.11,0.42,2.09,0.69,2.92c0.41,0.83,0.97,1.53,1.8,2.09
		c0.83,0.42,1.38,1.12,1.66,1.81c0.41,0.56,0.55,1.39,0.55,2.23C234.22,289.96,232.84,291.48,230.22,292.6z M202.42,194.84v-5.16
		h2.49c7.88,0,11.89-4.04,11.89-12.12v-34.32c0-7.94-4.01-11.98-11.89-11.98h-2.35v-3.55h44.66v3.55h-4.7
		c-4.15,0-7.05,0.98-8.99,3.07c-1.93,1.95-2.9,4.87-2.9,8.91v46.67h17.02c3.31,0,6.5-0.84,9.4-2.23c3.04-1.53,5.53-3.62,7.75-6.27
		c1.25-1.67,2.49-3.34,3.45-5.01c0.97-1.53,1.94-3.62,2.9-5.85c0.83-2.36,1.8-5.15,2.63-8.08h1.8v32.36H202.42z M278.89,241.63
		v44.71c0,1.25-0.14,2.37-0.41,3.34c-0.41,0.98-1.11,1.81-2.08,2.51c-0.83,0.69-2.22,1.39-3.88,1.81c-1.66,0.42-3.73,0.84-6.22,0.98
		c-0.42-2.37-1.11-4.46-2.22-6.13c-1.11-1.53-2.9-2.78-5.53-3.48l0.14-0.56l7.75,0.28c0.96,0.14,1.66-0.14,2.07-0.56
		c0.55-0.56,0.83-1.25,0.83-2.22v-21.86c-3.18,0.69-5.67,3.34-5.67,6.82c0-3.62-2.63-6.54-6.09-6.82v31.47
		c0,0.7-0.27,1.39-0.82,1.81c-0.56,0.42-1.25,0.7-2.22,0.98c-1.11,0.28-2.35,0.56-3.6,0.56c-1.24,0.14-2.35,0.28-3.59,0.28
		c0.28-4.04,0.41-8.5,0.41-13.23c0.14-4.88,0.14-9.61,0.14-14.21v-19.08c0-1.53-0.14-3.2-0.14-5.01v-5.02
		c-0.14-1.67-0.14-3.2-0.14-4.59l8.99,2.78h11.76l2.76-5.29l11.2,5.99L278.89,241.63z M318.72,239.13v5.01
		c-0.14,1.81-0.14,3.48-0.14,5.01v46.66c-2.49,0.14-4.84,0-7.19-0.56c-0.83-0.14-1.38-0.42-1.8-0.84c-0.28-0.42-0.56-1.12-0.56-1.95
		v-32.17c-3.59,0.14-6.49,3.2-6.49,6.96c0-3.48-2.63-6.26-5.95-6.82v22.41c0,1.95,0.97,2.93,2.77,2.79l7.75-0.28l0.14,0.56
		c-2.63,0.7-4.56,1.95-5.53,3.48c-1.24,1.67-1.94,3.62-2.22,6.13c-2.49-0.14-4.7-0.56-6.36-0.98c-1.8-0.56-3.04-1.12-4.01-1.81
		c-0.97-0.7-1.66-1.54-2.08-2.51c-0.41-0.97-0.69-2.09-0.69-3.34c0.14-0.83,0.14-2.22,0.27-3.9c0-1.81,0-3.76,0.14-5.71v-35.93
		l-3.18-3.76l11.2-5.85l2.77,5.43h12.72l8.57-2.65C318.85,235.92,318.72,237.45,318.72,239.13z M321.9,226.35h-77.58v-4.68h65.28
		l4.7-4.69l9.82,7.1L321.9,226.35z M353.84,157.98h-1.52c-0.41-2.51-0.97-4.74-1.52-6.83c-0.55-1.95-1.11-3.62-1.66-4.73
		c-1.53-3.48-3.46-6.4-5.67-8.5c-2.21-2.37-4.84-4.04-7.88-5.16c-3.17-1.11-6.49-1.67-10.37-1.67h-15.62v25.78h4.15
		c4.29,0,7.74-1.53,10.23-4.32c2.49-2.92,4.15-6.33,5.12-12.74h1.66v37.88h-1.66c-0.42-3.34-1.11-4.63-1.8-6.58
		c-0.69-1.95-1.66-3.75-2.9-5.27c-2.76-3.35-6.64-5.02-11.47-5.02h-3.32v18.96c0,4.04,0.97,5.43,3.04,7.37
		c1.94,1.95,4.84,2.93,8.85,2.93h4.15v4.74h-43.42v-4.74h1.66c4.15,0,7.05-0.98,8.99-2.93c1.94-1.95,2.9-3.33,2.9-7.37v-36.71
		c0-4.04-0.97-6.96-2.9-8.91c-1.93-2.09-4.84-3.07-8.99-3.07h-1.66v-3.39h71.63V157.98z"/>
	<path class="st0" d="M109.21,251.52l-3.6,2.78c0,0.14-0.14,0.28-0.14,0.42c-0.14,0.41-0.14,0.83-0.28,1.12c0,0.14,0,0.28-0.14,0.56
		h22.95v-0.14l4.15-6.13l3.18,2.22l0.96-3.02H98.29L109.21,251.52z"/>
	<path class="st0" d="M84.46,249.29c0,1.81-0.14,3.2-0.55,4.45c-0.28,0.83-0.83,1.67-1.25,2.65h11.2c0.28-1.39,0.55-2.65,0.69-3.9
		c0.27-1.12,0.27-2.51,0.27-3.62H84.46V249.29z"/>
	<path class="st0" d="M193.85,244.7l2.49-11.02h-14.52c-1.24,1.95-2.35,2.81-3.32,4.34c-1.38,1.95-2.77,3.76-4.29,5.43l2.21,1.25
		H193.85z"/>
	<path class="st0" d="M185.69,254.86c4.71,0,8.3-2.23,9.27-6.55h-19.36v14.44h19.5C194.4,258.02,190.53,254.86,185.69,254.86z"/>
	<polygon class="st0" points="78.94,141.78 66.7,170.03 89.85,170.03 	"/>
	<path class="st0" d="M195.23,262.75h18.95v-14.44h-18.67c0.83,4.32,4.56,6.55,9.13,6.55C199.79,254.86,195.92,258.02,195.23,262.75
		z"/>
	<path class="st0" d="M108.66,273.8c2.22,1.54,4.43,3.07,6.78,4.32c1.52-1.53,2.76-2.93,4.15-4.6c1.25-1.53,2.49-2.92,3.6-5.28
		h-20.47C104.65,270.75,106.59,272.13,108.66,273.8z"/>
	<path class="st0" d="M257.59,260.16c3.46-0.42,6.22-3.2,6.22-6.83c0,3.35,2.35,6.13,5.53,6.68v-18.36h-11.76V260.16z"/>
	<path class="st0" d="M296.59,260.01c3.32-0.56,5.95-3.2,5.95-6.68c0,3.76,2.9,6.68,6.5,6.83v-18.5h-12.45V260.01z"/>
</g>
</svg>
