<?xml version="1.0" encoding="utf-8"?>
<!-- Generator: Adobe Illustrator 23.0.3, SVG Export Plug-In . SVG Version: 6.00 Build 0)  -->
<svg version="1.1" id="图层_1" xmlns="http://www.w3.org/2000/svg" xmlns:xlink="http://www.w3.org/1999/xlink" x="0px" y="0px"
	 viewBox="0 0 400 400" style="enable-background:new 0 0 400 400;" xml:space="preserve">
<style type="text/css">
	.st0{fill:#FF4713;}
	.st1{fill:#231815;}
</style>
<path class="st1" d="M250.1,69.81l15.03-11.92h80.08v-17.6h-63.44l-3.65-8.27h-29.95l1.72,8.27h-39.4c-0.11,0-0.22,18.03-0.22,18.03
	h40.59L250.1,69.81z"/>
<path class="st1" d="M252.56,127.68l-4.51-6.93l-31.4,31.62v17.28h112.89l15.61-14.81v-52.76v-0.48h-3h-75.74l-15.22,16.34
	l64.98-0.4v10.15H252.56z M315.69,150.87h-65.92v-10.09h65.92V150.87z"/>
<path class="st1" d="M360.27,219.65l0.37-2.78c-1.96-3.46-3.12-6.17-3.49-8.16l-12.87-13.84c-4.24-2.77-6.36-4.24-6.36-4.4
	c-8.7-3.39-15.2-5.01-19.49-4.87l-1.83,0.29l-2.06,0.29c-6.4,0.99-10.75,1.74-13.03,2.27c-6.7,1.6-10.78,3.42-12.25,5.46
	c-9.96,4.78-16.44,8.36-19.43,10.76c-3.45,2.11-6.31,4.12-8.53,6.03c-2.26,1.3-3.47,2.11-3.61,2.42l0.71,0.66
	c-0.46,0.01-0.69,0.1-0.68,0.25l0.05,1.61l0.71,0.67c1.18-1.27,2.93-1.94,5.22-2.02l1.4,0.42l0.44-0.48c0.47,0.3,1.4,0.42,2.78,0.37
	c1.69-0.05,2.56,0.91,2.62,2.9c2.55,2.98,3.84,4.79,3.86,5.39l0.24,7.13l-0.21,0.69c-0.92,0.03-5.67,2.49-14.25,7.37
	c-0.06-1.68-0.31-2.59-0.78-2.73c-0.46,0.01-0.91,0.11-1.37,0.27c-1.73-1.47-2.61-2.29-2.61-2.44c-0.06-1.69,0.19-3.46,0.74-5.31
	c-0.17-0.46-0.27-1.3-0.31-2.53l-0.92,0.03l-0.19,1.16l0.04,1.37l-0.17,1.62c-0.69,6.78-2.9,12.21-6.6,16.32
	c-0.91,0.03-1.49-0.94-1.71-2.93c-0.66-6.42-1.47-9.61-2.38-9.58l0.88-0.95l-0.03-1.14c-0.01-0.31-0.33-0.45-0.95-0.43l0.67-0.71
	c-0.02-0.46-0.33-0.68-0.94-0.66c-0.01-0.3,0.06-0.46,0.21-0.46c-0.01-0.46-0.1-0.85-0.26-1.15l0.2-0.69l-0.61-4.81l0.23-0.01
	c-0.02-0.46-0.43-1.37-1.25-2.72l0.65-1.16c-0.04-1.23-0.29-1.99-0.76-2.28c-0.19-5.82-2.88-10.64-8.06-14.46
	c-2.21-1.6-3.31-2.65-3.33-3.11c-3.07-0.2-4.63-1.22-4.7-3.06c-1.23,0.04-2.2,0.68-2.92,1.93l0.49,0.91
	c-1.19,5.57-2.3,11.73-3.3,18.51l0.69-0.02c-0.03-0.76,0.26-1.15,0.87-1.17l0.46-0.02c0.02,0.61-0.08,2.16-0.31,4.61l0.5,1.36
	l-0.39,1.86l0.1,2.98l0.51,1.83c-0.3,0.01-0.45,0.09-0.44,0.24l0.49,1.13c0.22,6.75,0.58,10.56,1.07,11.47l-0.19,0.92
	c1.19,3.65,2.06,6.76,2.6,9.35c0.1,0.55,0.19,1.05,0.27,1.49c-2.67,4.31-4.01,7.21-4.01,8.7l-0.67-0.66h-0.45
	c0,0.44,0.08,0.66,0.22,0.66c-0.29,1.5-0.44,2.4-0.44,2.69v1.12c-0.75,0-1.2,0.67-1.34,2.02h0.67l-0.22,0.45v0.89l-0.23,0.67h0.45
	c0-0.45,0.22-0.67,0.67-0.67V269c-0.6,0.75-0.89,1.51-0.89,2.25v0.89h0.67v-1.34c0.14,0,0.44-0.45,0.89-1.34h0.22l-0.67,1.57v0.23
	l0.22,0.44l-0.44,2.02l0.22,0.45c-0.6,1.06-0.97,1.57-1.11,1.57c0,0.15,0.22,0.75,0.67,1.8c-0.75,0.15-1.35,0.6-1.8,1.34v0.23h0.67
	c1.34-1.06,2.24-2.62,2.69-4.71h0.89v0.44c-0.15,0.89-0.44,1.58-0.89,2.02c-0.45,0.45-0.75,0.67-0.9,0.67c0,0.3,0.08,0.6,0.23,0.89
	c-0.3,0.45-0.45,0.9-0.45,1.34v0.45c0.15,0,0.82-0.83,2.02-2.47h0.45v0.22l-2.91,5.39h0.66c1.2-2.1,2.17-3.14,2.92-3.14v-0.89
	c-0.3,0-0.53,0.15-0.67,0.44h-0.23c0.45-0.59,0.67-0.96,0.67-1.11h0.45v0.45l-0.89,5.15c-1.8,1.8-2.69,2.91-2.69,3.36
	c-2.69,4.64-5.01,6.95-6.95,6.95c-1.21,2.25-2.1,3.67-2.69,4.27h-0.45c0-0.6,0.59-2.1,1.78-4.49c0-0.89-0.14-1.34-0.44-1.34h-0.23
	l-1.78,2.69c-0.76,0-1.2-0.22-1.35-0.67c-0.3,0-0.45,0.3-0.45,0.89c-0.15,0-0.37-0.29-0.67-0.89c-0.15-0.14-0.3-0.37-0.45-0.67
	l2.25-4.49v-0.44c0-0.3-0.38-0.52-1.12-0.67c-1.65,1.65-2.47,2.54-2.47,2.69l0.23,0.44v1.58h-0.9c-0.44,0.89-1.41,1.94-2.91,3.13
	c-1.5,2.1-3.14,4.12-4.93,6.06l-0.67,0.9l-0.9,1.35c-0.44,0.59-0.74,0.89-0.89,0.89c0,0.75-6.95,2.32-20.86,4.71
	c-1.34,0-2.77-0.67-4.26-2.02h-0.9c-0.74,0-1.87,0.45-3.35,1.34h-0.23c-1.04,0-1.95-0.74-2.69-2.25h-0.67c0,0.6-4.18,1.21-12.55,1.8
	h-2.25c-2.54,0-4.04-0.74-4.48-2.24l-2.25-8.75l0.45-1.8c0.15,0,0.22,0.15,0.22,0.45c2.54-0.45,4.27-1.19,5.16-2.24
	c1.79-1.5,2.98-2.24,3.59-2.24c1.05,0.14,4.41-1.65,10.09-5.39l6.51-4.26c1.79-1.5,4.11-3.28,6.95-5.38c1.8,0,3.36-2.91,4.71-8.74
	l-0.67-0.67c1.5-1.8,2.25-2.91,2.25-3.36h3.13c0.15,0,0.3-0.15,0.45-0.45c0.15-0.29,0.29-0.74,0.45-1.34c2.09,0,3.96-2.17,5.61-6.51
	c1.64-4.34,2.69-7.85,3.14-10.54l-0.23-0.67c0-0.3,0.08-0.59,0.23-0.89c0-1.05-0.08-2.39-0.23-4.04c-1.65-0.45-3.36-1.5-5.16-3.14
	h-0.89l-3.58-1.79c-0.6,0-0.98,0.14-1.12,0.44c-0.3,0-0.44-0.22-0.44-0.67c0.59,0,1.27-0.45,2.01-1.34c0.3,0,0.45,0.22,0.45,0.67
	c0.75-0.29,1.35-0.52,1.8-0.67c0.3-0.15,0.45-0.3,0.45-0.44c2.39-0.6,4.48-1.87,6.27-3.82c0.3,0,0.52,0.22,0.67,0.67
	c1.65-0.6,2.47-1.04,2.47-1.34c3.73-1.5,5.6-2.47,5.6-2.91l0.44,0.22c2.1-0.74,3.14-1.34,3.14-1.8c0.6,0,0.97,0.08,1.12,0.22
	l0.89-0.22c0.6,0.15,0.89,0.82,0.89,2.02h1.12c1.34-1.8,2.17-2.69,2.47-2.69c1.34-2.69,2.39-4.04,3.14-4.04v0.45h0.44l0.22-0.67
	v-0.67l0.23-1.35c-0.45-1.5-0.67-2.54-0.67-3.14c-1.65-5.08-5.98-9.79-13.01-14.13c-3.28-2.24-9.42-4.26-18.39-6.05l-0.89,0.23
	c2.83,3.13,6.21,5.75,10.09,7.84c4.18,4.19,6.28,7.55,6.28,10.09c-0.6,1.34-0.98,2.02-1.11,2.02h-0.45v-0.89
	c0-1.34-2.1-2.25-6.28-2.69c0,0.15-0.08,0.22-0.23,0.22l-1.56-0.67h-1.8c-0.44,0-0.67,0.3-0.67,0.89
	c-7.33,2.69-11.44,4.05-12.33,4.05h-0.45v-0.23c0.45-0.3,0.97-1.57,1.58-3.82l2.24-10.08v-3.14c0-1.04,0.07-2.32,0.22-3.81
	c0-1.5-0.22-3.51-0.67-6.06c-1.5-5.08-3.14-9.04-4.93-11.88c-3.94-3.16-7.36-5.32-10.26-6.53h29.2l72.25-74.39h77l11.3-0.03
	l-23.45-27.88l-12.67,13.41h-34.57l13.85-16.96h-29.3l-19.12,16.64h-36.18v15.67h21.47l-52.49,54.65h-27.91v-37.04h50.45V95.58
	h-50.14V58.33h49.93V39.64H62.34L61.9,58.43h51.85v36.56H62.55v18.36h50.89v37.84h-46.7l-4.99-4.83l-22.39,23.3h108.64l0.12,0.24
	c3.29,0,5.23,3.29,5.83,9.87v5.84l-0.23,1.79l0.23,0.45v0.44c0,2.69-0.38,4.71-1.12,6.07l0.22,0.44l-0.44,2.91
	c0.14,0,0.22,0.08,0.22,0.23c-0.15,0.89-0.22,1.57-0.22,2.02c-0.16,0.44-0.3,0.67-0.45,0.67c0,0.15,0.07,0.22,0.22,0.22
	c-1.49,8.22-2.46,12.93-2.91,14.13c0,1.06-1.43,2.1-4.25,3.14h-0.23v-1.12l0.9-2.02l-0.67-2.69l0.22-0.45l-0.45-1.56l0.23-0.67
	c-0.16-1.2-0.38-3.21-0.68-6.06c0-4.63-2.09-8.67-6.28-12.11h-0.44v0.67h-0.23c0-0.44-0.3-0.67-0.89-0.67h-0.45l-0.44,0.23
	l0.22,0.67l0.22,1.11c0,0.9,0.07,1.87,0.23,2.92c0,9.27-4.12,21.52-12.34,36.77c-3.43,4.34-5.16,6.59-5.16,6.73l0.45,0.89
	c0,0.75-0.22,1.12-0.67,1.12c0,0.3,0.22,0.45,0.67,0.45c0,0.15-0.15,0.22-0.45,0.22l0.45,0.45c0,0.44-0.22,0.67-0.67,0.67
	c0,0.15,0.08,0.22,0.22,0.22c1.19,4.79,2.33,7.26,3.37,7.4c0,0.15-0.08,0.23-0.23,0.23c0,0.14,0.23,0.96,0.67,2.46
	c2.09,0,4.79-1.2,8.07-3.59h0.23v0.23l-0.68,0.9v0.22c0.3,0,0.53,0.07,0.68,0.22l4.93-2.69c0.15-1.8,0.67-3.14,1.56-4.04
	c2.69-1.8,4.04-2.99,4.04-3.58c2.39-1.35,3.6-2.69,3.6-4.04h0.67v0.89h0.66c0.15-0.44,0.3-0.74,0.45-0.89l0.23-0.22v-0.23v-0.45
	l9.42-5.82h0.89v0.22c1.2,0,1.8-0.3,1.8-0.89l0.89,0.22h0.22c5.08-2.54,10.76-4.71,17.05-6.5l0.44,0.44
	c4.04-0.59,8.38-1.87,13.02-3.81v0.45c-0.31,0.9-0.75,1.35-1.35,1.35v1.34c-1.79,0.45-2.68,0.75-2.68,0.89
	c-0.75,1.21-4.49,3.82-11.21,7.86c-0.15,0-0.22-0.07-0.22-0.22l-2.47,0.67c-0.15-0.3-0.38-0.45-0.67-0.45
	c-1.8,0.75-2.69,1.73-2.69,2.92c0,0.29-2.92,2.02-8.74,5.15c-0.9,1.35-1.65,2.02-2.24,2.02c-3.29,3.14-6.51,5.23-9.65,6.29
	c-13.15,8.97-21.97,13.44-26.46,13.44c-0.15,0-0.38-0.14-0.67-0.45c-0.59-0.59-0.97-1.19-1.12-1.79l0.22-0.45v-0.22
	c0-0.45-0.14-0.67-0.44-0.67h-0.67l-0.45,0.22v-0.89c0-1.2-1.04-2.09-3.13-2.69h-0.23c-0.29,0-0.44,0.22-0.44,0.67h-0.23
	c-0.89-1.04-1.65-1.8-2.24-2.24c-0.6-0.3-0.97-0.45-1.12-0.45l-1.11,0.45c-1.21,0-2.62-0.82-4.27-2.47h-0.22
	c0.89,2.39,1.35,3.97,1.35,4.71v2.91l-0.45,0.67c-2.39,1.5-5.9,4.12-10.53,7.85l0.22-2.24v-7.18l-0.22-1.35
	c0.14,0,0.22-0.07,0.22-0.22V256l-0.22-0.67c0.14-0.74,0.22-1.57,0.22-2.47v-1.57c5.23-5.97,8.45-8.96,9.64-8.96
	c3.44-3.44,5.97-5.53,7.62-6.29c0-0.44-0.44-0.81-1.33-1.11c0.14-0.15,0.22-0.45,0.22-0.9h0.22c0.45,0,0.67,0.23,0.67,0.67
	l0.22-0.22c0-0.29-0.96-1.05-2.91-2.24l-1.56,0.22h-0.23l-5.6-2.24l2.69-2.25c2.09-1.05,4.56-3.13,7.4-6.28
	c2.69-1.05,4.19-1.64,4.49-1.8c0.59,0,0.89-0.36,0.89-1.11c0.9,0,1.35,0.15,1.35,0.45h0.9c0.29,0,0.51,0.07,0.67,0.22h0.22
	l-0.45-0.67c-0.15-0.45-0.3-0.67-0.44-0.67c0.14-0.15,0.22-0.37,0.22-0.67c0.15,0,0.22,0.07,0.22,0.22c1.2,0,1.87-0.22,2.02-0.67
	c-2.24-2.54-3.73-3.82-4.48-3.82v-1.35c3.44,0.9,5.15,2.47,5.15,4.71h0.45v-1.33c-0.6-2.69-2.54-4.05-5.83-4.05
	c-0.45,0-0.74,0.08-0.89,0.23c-2.1-2.09-6.81-4.34-14.13-6.73h-0.67l-0.45,0.44c-2.69-0.89-5.23-1.34-7.62-1.34h-0.45v-0.67
	c4.78-8.37,7.18-13.23,7.18-14.58c0-5.38-6.66-9.35-19.96-11.89c0,0.15-0.08,0.22-0.22,0.22c0,0.45,0.22,0.67,0.67,0.67
	c0.74,2.25,4.34,4.79,10.76,7.63c-0.6,1.94-3.73,8-9.42,18.16c-1.19,0.89-1.94,1.87-2.24,2.91c-5.23,8.52-9.87,15.55-13.91,21.08
	c0,0.3,0.07,0.45,0.22,0.45l-1.57,1.57c-9.24,14.6-17.13,25.92-23.69,33.99l-2.99,6.39l0.22,0.22v0.22c0,0.6-0.3,0.89-0.9,0.89
	c0,0.16,0.08,0.23,0.23,0.23l-0.23,0.44v0.9l1.34,1.34l0.45-0.23l1.35,0.23c-0.3,0.3-0.52,0.52-0.67,0.67l-0.45,0.22
	c0,0.04,0.02,0.1,0.02,0.1l2.49,0.4c1.12-0.33,2.93-0.8,5.56-1.4c0.75-1.19,2.25-2.47,4.49-3.81h0.22v1.34
	c0.75-0.45,2.69-3.14,5.84-8.07c4.17-6.58,6.51-9.86,6.95-9.86c1.94-1.65,4.49-5.46,7.63-11.44h0.44c0.59,1.94,0.9,3.43,0.9,4.48
	c-0.15,0.3-0.23,0.82-0.23,1.57l0.23,0.45h-0.23c0.15,0.45,0.23,1.57,0.23,3.36c0,2.24,0.74,3.82,2.24,4.71
	c0.75,0,3.44-1.8,8.08-5.38c0.3,0,0.44,0.08,0.44,0.23c-3.28,3.73-6.28,7.1-8.97,10.08c-1.79,1.95-3.21,3.29-4.26,4.04
	c-2.69,1.95-3.8,3.45-3.36,4.49c-7.62,9.42-11.44,16.37-11.44,20.86l2.24,5.83c0,1.35,1.27,2.46,3.82,3.37h2.91
	c5.23-1.95,11.06-4.34,17.49-7.18l0.45,1.8v6.5l0.23,1.58c-1.96,2.24-2.92,4.11-2.92,5.6c0.45,0,0.67,0.23,0.67,0.67h-0.67
	c0,0.15,0.22,0.22,0.67,0.22c0.74,1.34,1.27,2.02,1.57,2.02c0.45,0.89,0.97,1.34,1.57,1.34c1.05,2.7,1.87,4.04,2.47,4.04
	c0,0.3-0.15,0.52-0.44,0.67c0,0.74,0.29,2.1,0.89,4.04h0.67v-0.22l-0.22-0.67c0.29,0,0.44-0.22,0.44-0.67
	c1.34,0,2.09,1.34,2.25,4.04l-0.23,1.57c0.45,0,0.67,0.37,0.67,1.12c0.9,0,1.5-0.15,1.8-0.45c0.29,0,1.05,0.97,2.25,2.92l1.33-0.23
	h0.9l1.11,1.56h0.22c1.35-0.44,2.17-1.11,2.47-2.02v-1.11h0.67c1.04-2.54,1.87-3.82,2.47-3.82c0-1.5-0.37-2.24-1.12-2.24
	c0.9-2.84,1.34-4.93,1.34-6.27c-0.15,0-0.22-0.08-0.22-0.23c0.45-0.59,0.74-0.89,0.89-0.89c0-0.44-0.15-0.67-0.44-0.67h-0.67
	c-0.6,0-0.9,0.23-0.9,0.67l-0.44-0.22l0.44-1.12l-0.22-0.89l0.22-1.12l-0.68-1.35c0.6-1.94,1.13-2.91,1.58-2.91
	c1.94-5.98,3.89-10.16,5.82-12.56v-0.22c0-0.3-0.22-0.6-0.67-0.89c0-0.6,0.89-1.73,2.69-3.37l-0.45-0.44l0.45-0.67
	c0.15,0,0.22,0.08,0.22,0.22c0.45,0,0.97-0.82,1.57-2.46l-0.22-0.45c0.44-0.45,0.81-0.83,1.11-1.12c0.59-0.44,0.97-0.67,1.12-0.67
	c0.74-1.94,1.27-2.91,1.57-2.91c0-1.2,0.45-1.8,1.35-1.8v-0.9c-0.61-1.18-1.05-1.78-1.35-1.78v-0.22l0.45-1.56l0.89-0.68l0.45-0.44
	v-0.67l-8.29,8.29c-1.5,2.24-2.55,3.36-3.14,3.36c-1.65,2.1-2.77,3.14-3.37,3.14c0,0.15-3.14,3.21-9.42,9.19l-0.67-3.13h0.45
	c-0.45-3.14-0.68-4.86-0.68-5.16c0.15-0.45,0.23-0.74,0.23-0.89c-0.15,0-0.23-0.08-0.23-0.23c0-0.14,0.37-0.67,1.14-1.57l8.96-6.95
	c2.39-1.8,3.81-3.06,4.26-3.82c5.68-3.89,8.75-6.28,9.2-7.17c1.05,0.74,1.57,1.27,1.57,1.56c1.05,1.95,4.26,3.44,9.64,4.48
	c0.15-0.29,0.45-0.44,0.9-0.44h0.44v0.44l0.22,0.45l1.36-0.22h1.11l1.12-0.23c3.64-1.09,6.37-2.24,8.23-3.43
	c-0.25,0.56-0.46,1.23-0.62,2.02l-3.25,4.6v0.27h0.27l10.55-5.67c0.9,0,1.36-0.37,1.36-1.09c-0.55,0-0.81-0.27-0.81-0.81
	c-0.18,0-0.27,0.27-0.27,0.81c-1.32-0.44-2.51-1.04-3.59-1.73c0.31-0.22,0.47-0.49,0.47-0.79l2.91-1.57l2.25-1.57
	c1.49-0.15,3.21-1.2,5.16-3.14c2.09-1.19,3.13-2.16,3.13-2.91h1.34c-1.65,3.45-6.95,9.8-15.91,19.06c-3.14,1.8-4.71,3-4.71,3.59
	c-1.35,0.15-2.02,0.6-2.02,1.35l-1.35-0.45l-1.11,0.22l-3.36-3.8c-1.35,0-2.25,0.89-2.69,2.69c-2.24,3.89-4.56,11.74-6.95,23.55
	c0,3.28,1.79,7.02,5.37,11.2c-0.14,0-0.22,0.08-0.22,0.23c2.99,5.23,5.01,8.36,6.06,9.42c3.28,2.09,5.38,4.18,6.29,6.28
	c0.74,0,1.19-0.07,1.33-0.22c0.9,0.59,1.8,0.96,2.69,1.11l0.68,0.22c1.19,1.05,2.83,1.58,4.93,1.58c0-0.3,0.07-0.45,0.22-0.45
	c1.65,1.04,3.36,1.72,5.16,2.03c5.08,2.09,9.05,3.13,11.88,3.13c1.8,0,3.45-0.15,4.94-0.45c0,0.15,0.07,0.23,0.22,0.23h0.45
	c0.29,0,0.46-0.15,0.46-0.45l0.66,0.22h1.57l0.89-0.22v0.22l1.35-0.22h1.8l0.67-0.22h2.24l1.8-0.45c0,0.45,0.15,0.67,0.45,0.67
	c0.44,0,0.66-0.45,0.66-1.35c0.3,0,0.45,0.22,0.45,0.67c0.45,0,0.67-0.3,0.67-0.89l0.89,0.89h0.45c0.3,0,0.45-0.3,0.45-0.89
	c0.59,0,1.04,0.07,1.35,0.22c0.74-0.3,1.12-0.6,1.12-0.89c0.44,0,0.89,0.07,1.34,0.22l0.67-0.22c0.3,0,0.52,0.07,0.68,0.22
	c0.44,0,0.66-0.15,0.66-0.44l0.23,0.22h0.67c0.89-0.6,1.34-0.98,1.34-1.12c0.3,0,0.44,0.14,0.44,0.45c0.3,0,0.45-0.15,0.45-0.45
	l0.67,0.22h0.23c0-0.15,0.07-0.37,0.22-0.67v-0.44l0.44-0.9h0.23l0.22,1.34h0.22v-0.67l0.45,0.45h0.23v-1.12
	c0.29,0,0.67,0.23,1.12,0.67h0.67l0.23-1.57h1.33v0.44l-0.66,0.45l0.89,0.45c0.3,0,0.44-0.3,0.44-0.9h0.23
	c0.29,0,0.45,0.15,0.45,0.45l0.89-0.22h0.67l0.67-0.23l0.67,0.23l2.69-1.57c0,0.44,0.44,0.67,1.34,0.67c0-0.89,0.37-1.72,1.11-2.47
	h0.45c0,0.44-0.08,0.75-0.22,0.89c0.14,0.75,0.37,1.12,0.67,1.12h1.56v-1.12l-0.22-0.45h0.22c0.3,0,0.45,0.45,0.45,1.36h0.22v-0.67
	h0.89c2.1-0.31,3.14-0.68,3.14-1.12c0.45,0,0.67,0.15,0.67,0.44c0.6,0,0.98-0.07,1.13-0.22c0.3,0,0.44,0.3,0.44,0.9h0.23
	c0.45,0,0.82-0.31,1.13-0.9c0-0.3-0.16-0.66-0.45-1.11l0.45-0.45v-0.45l-0.45-0.44c0.45,0,0.81-0.08,1.11-0.23h0.23v1.12
	c0.3,0.74,0.52,1.12,0.67,1.12v-0.67c0.89-0.75,1.49-1.34,1.79-1.8c0.45-0.6,0.6-1.05,0.45-1.34l0.89,0.67h0.23
	c0.74-1.35,1.12-2.1,1.12-2.24l0.67,0.22c0.59-0.15,0.89-0.37,0.89-0.67c1.34-1.06,2.02-1.95,2.02-2.69
	c1.05,0.45,1.72,0.67,2.02,0.67v-0.67l-0.22-0.67c0.29,0,0.44-0.52,0.44-1.57c0.15,0,0.22,0.08,0.22,0.23l2.47-2.69l-0.22-0.45
	c0.45,0,1.64-1.86,3.59-5.6c0.15-0.15,0.45-0.74,0.89-1.79c0.46-1.05,1.05-2.39,1.8-4.05l-0.22-0.66v-0.68
	c0.29-0.44,0.52-0.67,0.67-0.67v-0.66l-0.23-0.45l0.23-0.68v-1.78h-0.45v-0.22c1.35-1.8,2.02-3.21,2.02-4.27
	c0-0.29-0.3-0.45-0.89-0.45l0.89-2.01l0.45-1.57l0.22-1.13l-0.44-1.34c0-0.15,0.07-0.37,0.22-0.67v-0.9l0.22-0.89l-0.44-0.45
	l0.44-0.45c0-0.29-0.05-0.51-0.07-0.78c0.91,0.65,1.57,1.35,1.95,2.13c1.93,2.54,5.75,4.49,11.47,5.82l0.2-0.92
	c0.15-0.01,0.61,0.14,1.39,0.42c0.62,0.59,1.5,1.32,2.6,2.21c1.37,4.1,3.04,6.11,5.03,6.04c0.08,7.21,0.07,13.81-0.04,19.79
	c0.08,2.29-0.01,4.45-0.24,6.45c-0.26,1.7-0.28,3.3-0.08,4.83c0.15-0.01,0.24,0.22,0.26,0.68c-0.19,3.69-0.28,5.6-0.27,5.76
	l0.26,1.13c-0.15,0.01-0.22,0.09-0.22,0.24l0.08,2.53l1.86,21.33l0.12,3.91l0.5,0.9l-0.46,0.02c0.59,3.97,0.94,7.71,1.05,11.24
	l0.49,0.9c1.07-0.35,1.97-0.6,2.73-0.78l0.68-0.25l0.69-0.02c0.9-0.95,2.7-6.39,5.44-16.29c2.82-7.45,4.2-12.48,4.11-15.09
	l1.41,0.65l0.45-0.02c1-2.33,1.8-3.58,2.41-3.75c0.01-16.5,0.14-25.02,0.39-25.68c-0.01-2.85-0.04-7.36-0.07-13.67l-0.55-2.51
	c0.15,0,0.34-1.23,0.57-3.7c-0.03-0.92-0.15-2.07-0.34-3.44c-0.21-1.68-0.51-3.67-0.88-5.95c2.22-2.22,3.8-3.34,4.72-3.37
	c0.02,0.61,0.18,0.99,0.49,1.13c4.38,2.62,6.58,4.08,6.59,4.39c0.3-0.01,0.6-0.1,0.91-0.26c0.76,0.13,1.39,0.18,1.85,0.17l0.45-0.02
	c0.3-0.01,0.46-0.16,0.45-0.47l1.16,0.19c0.73-0.79,1.49-1.21,2.26-1.23l1.14-0.04l0.01,0.23c-1.23,0.2-1.82,0.6-1.8,1.22l0.03,0.91
	l0.45-0.01l4.04-3.12l0.71,0.66c0.46-0.02,0.68-0.4,0.66-1.17l1.15,0.42l0.44-0.47c0.02,0.46-0.04,0.84-0.19,1.15l0.01,0.23
	l0.46-0.01l-0.01-0.46l0.68-0.03l0.05,1.39c-0.77,0.03-1.58,0.96-2.44,2.84c0.92-0.03,1.38,0.26,1.4,0.87l2.46-2.16
	c-0.02-0.75,0.77-2.09,2.4-3.99c0.61-0.02,1.07,0.12,1.39,0.42c3.18-1.18,5.13-2.4,5.86-3.65l0.48,0.68l2.24-1.92
	c1.11-3.25,2.11-5.73,2.97-7.46l-0.05-1.61c1.07-0.03,2.21-2.6,3.43-7.7c2.37-2.53,5.03-7.76,7.99-15.67
	c0.45-0.17,1.68-2.51,3.68-7.03c1.43-3.26,2.75-4.92,3.98-4.96l3.38-9.08l-0.25-0.69c1.49-1.27,2.41-3.83,2.74-7.67L360.27,219.65z
	 M90.04,258.47c-1.51,8.66-2.25,13.22-2.25,13.67c0,1.65-1.34,3.45-4.03,5.38c-1.49,1.04-2.91,2.1-4.26,3.14
	c-1.05,0.89-2.02,1.56-2.91,2.02c-6.73,5.08-11.29,7.62-13.68,7.62h-0.68c0.45-3.43,4.04-9.12,10.76-17.04
	c0.15,0,4.79-4.56,13.91-13.69c1.8-0.44,2.69-0.96,2.69-1.56h0.45V258.47z M81.74,236.27c-1.5,0-3.36,1.34-5.6,4.04v-0.22
	c2.54-4.49,3.81-6.88,3.81-7.18c1.35-2.54,2.03-3.82,2.03-3.82v-0.67l8.96-17.27l1.57,0.23h0.67c4.49,2.39,7.99,4.11,10.54,5.15
	C95.49,225.06,88.16,231.63,81.74,236.27 M271.9,274.08l0.14,4.14l-0.69,0.02c-0.03-0.76-1.38-1.87-4.03-3.31
	c-0.03-0.92-0.89-1.74-2.61-2.45c-3.56-5.86-5.37-9.41-5.41-10.63l1.48-4.19l-0.06-1.84c-0.01-0.46-0.63-0.74-1.87-0.86l-0.02-0.68
	l0.21-0.47l-0.28-1.6c1.52-0.35,6.44-2.52,14.74-6.48l0.01,0.24C272.37,262.87,271.83,272.25,271.9,274.08 M298.01,250l-0.45,0.01
	c-4.01-5.54-6.33-8.38-6.96-8.51c2,4.69,3.51,8.79,4.55,12.27c-0.29,0.62-2.21,2.83-5.76,6.64c-0.02-0.46-0.18-0.84-0.49-1.13
	l0.43-0.7c-0.02-0.61-0.26-0.91-0.72-0.9c0.37-7.52,0.63-13.29,0.81-17.27l-0.1-3.22c0.72-1.25,6.17-3.11,16.38-5.6l0.01,0.23
	C303.43,242.29,300.87,248.37,298.01,250 M310.64,214.38c-0.53,2.32-1.2,5.1-2.03,8.34l0.02,0.46c-2.79-0.82-5.71-1.19-8.78-1.09
	c-0.15,0.01-0.38,0.24-0.67,0.71c0.01,0.15-0.67,0.25-2.06,0.3l-0.01-0.23l1.84-0.06l-0.02-0.69l-1.84,0.06l-0.67,0.49l0.25,0.44
	l0.01,0.46c-1.69,0.06-3.89,0.67-6.61,1.83l-0.03-0.68l0.92-0.03l-0.03-0.92l-1.14,0.04c0.13-0.31,0.37-2.55,0.69-6.7
	c-0.13-4.14,1.54-6.88,5.02-8.21c4.05-2.74,8.89-4.97,14.5-6.69l0.92-0.03c1.07,0.12,1.72,0.94,1.92,2.46
	C312.19,207.74,311.46,210.99,310.64,214.38"/>
</svg>
