<?xml version="1.0" encoding="utf-8"?>
<!-- Generator: Adobe Illustrator 23.0.3, SVG Export Plug-In . SVG Version: 6.00 Build 0)  -->
<svg version="1.1" id="图层_1" xmlns="http://www.w3.org/2000/svg" xmlns:xlink="http://www.w3.org/1999/xlink" x="0px" y="0px"
	 viewBox="0 0 400 400" style="enable-background:new 0 0 400 400;" xml:space="preserve">
<style type="text/css">
	.st0{fill:#FF4713;}
	.st1{fill:#231815;}
</style>
<path class="st0" d="M284.01,246.9c0,0-10.11,12.03-11.93,19.35c0,0,12.26-13.25,14.69-21.18
	C286.78,245.06,287.19,242.57,284.01,246.9"/>
<path class="st0" d="M241.35,10.51h-83.7C75.78,10.51,9.5,76.87,9.5,158.66v83.7c0,81.87,66.28,148.15,148.15,148.15h83.7
	c81.78,0,148.15-66.28,148.15-148.15v-83.7C389.5,76.87,323.13,10.51,241.35,10.51 M206.04,116.74h32.61l-47.45,43.09l47.45,43.09
	h-32.61l-47.45-43.09L206.04,116.74z M130.19,170.16l0.04,0.05v-53.47h17.42c5.67,0,10.26,4.59,10.26,10.26v75.92h-27.72V170.16z
	 M48.71,202.91v-86.17h28.18l49.1,49.21v33.1l-49.6-49.6v43.03c0,5.76-4.67,10.43-10.43,10.43H48.71z M159.75,253.94
	c-0.66-0.06-1.3,0.13-1.78,0.59c-6.58,6.43-11.85,22.37-11.85,22.37c0.51,9.65-6.11,4.66-6.11,4.66
	c-4.87-4.16,1.25-12.94,1.25-12.94l19.75-38.65c1.07-8.21,4.81-4.6,4.81-4.6c7.06,9.4,1.52,10.4,1.52,10.4
	c-1.38,1.32-3.91,7.05-5.41,10.61c-0.64,1.52,0.51,3.14,2.16,3.12c3.38-0.04,9.51-0.64,19.23-3.32
	c13.49-3.71,14.22-14.43,14.05-18.13c-0.05-1.11-0.3-2.16-0.85-3.13c-1.86-3.3-8.24-9.5-29.42-5.87
	c-16.7,2.86-24.52,7.61-28.12,11.01c-0.04,0.48-0.08,0.76-0.08,0.76c-1.95,28.84-47.88,23-47.88,23
	c-6.94,5.88-12.62,23.07-12.62,23.07c0.51,9.65-6.11,4.66-6.11,4.66c-4.87-4.16,1.25-12.94,1.25-12.94l19.75-38.65
	c1.07-8.21,4.81-4.6,4.81-4.6c7.06,9.4,1.52,10.4,1.52,10.4c-2.04,1.96-6.6,13.52-6.6,13.52s6.17,1.41,22.57-3.11
	c14.63-4.03,14.25-16.31,14-18.91c-0.03-0.36-0.09-0.67-0.2-1.02c-0.77-2.34-5.37-11.42-30.02-7.2
	c-28.17,4.82-31.07,15.04-31.07,15.04c-0.24,3.04-0.85,4.22-2.78,3.82c-1.93-0.4-2.26-3.82-2.26-3.82
	c-0.61-4.13,5.11-6.55,5.11-6.55c18.86-13.66,46.43-14.35,46.43-14.35c18.26-1.34,22.87,6.9,23.92,12.57
	c18.68-11.93,43.79-12.57,43.79-12.57c27.44-2.02,24.08,17.63,24.08,17.63C204.84,257.12,166.5,254.59,159.75,253.94 M228.72,255.84
	c-4.25,7.65-14.6,21.76-18,33.31c0,0-1.77,5.27-0.65,6.72c0,0,0.86,1.89,2.69,0c0,0,2.85,1.27-0.76,4.88
	c-3.6,3.61-11.64-3.24-9.01-12.37c0,0,7.56-21.58,17.32-35.35c0.47-0.66-0.13-1.49-0.89-1.24c-4.6,1.51-14.86,5.19-20.9,9.84
	c-0.11,0.08-0.19,0.18-0.25,0.3c-0.56,1.07-3.51,6.36-5.53,2.83c-2.24-3.91,2.51-7.53,3.83-7.85c1.32-0.32,21.44-9.98,28.77-12.17
	c0.07-0.02,0.1-0.03,0.16-0.07c0.47-0.31,3.39-2.35,7.5-7.21c0,0,12.07-14.37,15.33-18.54c0,0,1.51-2.09-4.63-0.75
	c0,0-19.34,5.02-27.54,13.15c-0.12,0.12-0.2,0.25-0.23,0.42c-0.26,1.11-1.46,5.7-3.39,4.82c0,0-2.79,0.14-2.9-3.24
	c-0.11-3.38,0.32-4.22,3.65-6.33c0,0,14.36-7.43,22.63-11.06c8.27-3.63,17.21-4.07,18.8-1.77c1.59,2.31,0.26,0.29,0.26,0.29
	s3.91,3.69-2.14,10.22c0,0-12.17,12.99-15.17,17.23c-0.04,0.06-0.08,0.12-0.12,0.17c0,0,17.11-4.8,17.43-1.26
	c0,0,1.38,3.91-0.88,5.53c-2.26,1.62-2.26,2.18-7.79-0.44C240.79,243.25,232.97,248.2,228.72,255.84 M327.81,274.44
	c-7.95,8.64-9.4,7.7-9.4,7.7c-4.7,0.3-4.29-5.48-4.29-5.48c0.93-6.38-0.3-5.96-0.3-5.96c-1.77-0.33-7.27,6.46-8.11,8.52
	c-0.06,0.15-0.12,0.28-0.19,0.4c-0.87,1.6-2.33,1.27-2.33,1.27c-3.61-0.38-2.3-5.6-2.3-5.6c1.43-8.32-0.46-7.25-0.46-7.25
	c-3-0.45-11.1,11.07-11.1,11.07c-1.98,4.93-3.8,3.72-3.8,3.72c-4.05-2.41,0.51-7.83,0.51-7.83c4.68-5.12,2.71-5.28,2.71-5.28
	c-3.3-0.15-7.96,7.62-13.21,11.54c-5.25,3.92-8.51-0.74-8.51-0.74c-1.47-2.2-1.55-5.26-1.06-8.26c-0.14,0.35-0.31,0.75-0.56,1.24
	c0,0-4.59,6.68-11.19,8.54c0,0-5.58,1.87-3.81-6.17c0,0,1.19-4.36,2.17-6.33c0,0,1.61-2.73-2.14-0.59c0,0-4.1,2.11-5.74,4.1
	c0,0-2.7,0.67-0.71-2.78c0,0,5.52-4.67,8.78-6.56c0,0,3.69-3.35,5.03,0.67c0,0,0.98,2.63-2.42,10.53c0,0-1.61,2.81,0.68,1.63
	c0,0,5.6-2.73,8.23-5.31c0,0,1.73-1.32,2-0.52c1.08-4.75,3.28-8.98,3.28-8.98c11.34-22.43,17.64-22.97,17.64-22.97
	c3.95-0.71,3.14,3.97,3.14,3.97c-3.17,10.68-14.66,25.59-14.66,25.59c-3.28,4.27-4.99,3.14-4.99,3.14c-1.06,0.96-1.53,4.99-0.4,7.52
	c1.14,2.53,6.17-2.45,6.17-2.45c10.53-12.44,14.2-11.4,14.2-11.4c3.52-0.25,2.53,4.45,2.53,4.45c5.88-6.24,9.26-6.08,9.26-6.08
	c3.05-0.7,3.96,5.11,3.33,8.07c-0.02,0.08-0.03,0.16-0.05,0.24c-0.5,2.64,0.8,1.35,0.8,1.35c8.28-8.67,10.65-6.86,10.65-6.86
	c3.19,0.73,1.98,7.24,1.98,7.24c-0.97,3.6,0.68,3.28,0.68,3.28c2.87-0.45,5.97-4.35,5.97-4.35
	C328.32,271.16,327.81,274.44,327.81,274.44 M259.38,251.15c0-1.67,1.05-3.02,2.34-3.02c1.29,0,2.34,1.35,2.34,3.02
	c0,1.67-1.05,3.02-2.34,3.02C260.43,254.18,259.38,252.82,259.38,251.15 M314.29,202.91h-73.22v-62.7h17.35
	c5.71,0,10.33,4.62,10.33,10.33v33.25h37.42c4.28,0,19.68-11.34,19.68-25.38c0-14.04-15.4-22.56-19.68-22.56h-65.1v-8.6
	c0-5.81,4.71-10.52,10.52-10.52h62.7c5.28,0,35.98,14.84,35.98,43.09C350.27,188.08,319.57,202.91,314.29,202.91"/>
</svg>
