<svg t="1691474211991" class="icon" viewBox="0 0 1024 1024" version="1.1" xmlns="http://www.w3.org/2000/svg" p-id="3090" width="40" height="40"><path d="M512 0c282.7776 0 512 229.2224 512 512s-229.2224 512-512 512S0 794.7776 0 512 229.2224 0 512 0z m0 25.6C243.3792 25.6 25.6 243.3792 25.6 512s217.7792 486.4 486.4 486.4 486.4-217.7792 486.4-486.4S780.6208 25.6 512 25.6z m77.3376 222.848a126.72 126.72 0 0 0 35.8144 70.4512 131.072 131.072 0 0 0 42.24 28.2624 119.7312 119.7312 0 0 0 45.3888 17.4592l6.7584 1.024c4.5312 0.512 9.088 0.8192 13.6448 0.896v92.5184a214.016 214.016 0 0 1-104.9088-27.0592 217.3952 217.3952 0 0 1-8.192-3.6608l-11.3408-5.76v164.7616a167.3984 167.3984 0 0 1-133.4784 163.456l-6.144 1.152a163.3792 163.3792 0 0 1-112.9472-22.528l1.664 0.9728-2.3552-0.9728a170.112 170.112 0 0 1-2.816-1.7664 170.6752 170.6752 0 0 1-86.7328-94.5664 166.528 166.528 0 0 1 109.1072-216.2688 155.6992 155.6992 0 0 1 48-6.656v11.136c6.5792-0.6912 13.2352-0.9728 19.8912-0.8192v90.752c-4.5312 0.7168-9.088 1.92-13.6192 1.92a74.7008 74.7008 0 0 0-30.208 135.1168 52.352 52.352 0 0 1-8.5504-3.5072 76.1856 76.1856 0 0 1-34.2784-31.744l-2.0224-3.7888c7.6288 15.5136 20.48 28.416 37.0176 35.8912 2.7392 1.408 5.6064 2.56 8.5504 3.4816a73.472 73.472 0 0 0 116.5824-45.0304c0.256-2.1248 0.256-4.3008 0-6.4512V241.7408h72.0896v0.1792h19.2a133.1712 133.1712 0 0 0 37.888 87.296c6.6816 6.4768 14.0032 12.3392 21.8112 17.408a131.072 131.072 0 0 1-42.24-28.2624 126.72 126.72 0 0 1-36.6592-76.4416z m-1.7152 161.7408v166.5024a167.2192 167.2192 0 0 1-163.1744 166.6048c8.0896-0.1024 16.2048-0.8448 24.2432-2.176a167.2192 167.2192 0 0 0 139.6224-164.4288V410.624l-0.6912-0.4096zM586.5984 230.4c1.2032 3.6608 1.2032 7.3216 1.2032 10.8288h-72.0896v355.3792c0.256 2.1248 0.256 4.3008 0 6.4512h0.512a73.472 73.472 0 0 1-116.5824 45.0304 75.2384 75.2384 0 0 0 96.1792-55.8592 25.472 25.472 0 0 0 0-6.272V230.4z m80.7936 116.224a120.2688 120.2688 0 0 0 45.3888 9.088v8.3968a119.7312 119.7312 0 0 1-45.3888-17.4592z" fill="#ffffff" p-id="3091"></path></svg>