<?xml version="1.0" standalone="no"?><!DOCTYPE svg PUBLIC "-//W3C//DTD SVG 1.1//EN" "http://www.w3.org/Graphics/SVG/1.1/DTD/svg11.dtd"><svg t="1691474329586" class="icon" viewBox="0 0 1024 1024" version="1.1" xmlns="http://www.w3.org/2000/svg" p-id="4119" xmlns:xlink="http://www.w3.org/1999/xlink" width="47" height="47"><path d="M805.487288 548.760229c0-72.074525-74.857918-130.503263-167.366845-130.503263-92.425016 0-167.370939 58.428737-167.370939 130.503263 0 71.643714 74.078159 129.720434 165.804257 130.416282 39.908942 67.121723 76.511581 54.254671 76.511581 54.254671s-28.516474-18.954701-31.473829-58.687634C752.974283 659.788951 805.487288 609.099479 805.487288 548.760229L805.487288 548.760229zM582.474075 528.418948c-10.780531 0-19.562545-8.783037-19.562545-19.563568 0-10.784624 8.782014-19.562545 19.562545-19.562545 10.780531 0 19.562545 8.777921 19.562545 19.562545C602.036619 519.635911 593.254605 528.418948 582.474075 528.418948L582.474075 528.418948zM689.677679 528.418948c-10.868535 0-19.562545-8.783037-19.562545-19.563568 0-10.784624 8.694009-19.562545 19.562545-19.562545 10.780531 0 19.47454 8.777921 19.47454 19.562545C709.152219 519.635911 700.458209 528.418948 689.677679 528.418948L689.677679 528.418948zM689.677679 528.418948" fill="#ffffff" p-id="4120"></path><path d="M617.774045 395.476123c-28.084639-61.641919-104.157221-105.895819-193.712887-105.895819-113.462145 0-205.452255 71.031776-205.452255 158.584831 0 75.032904 67.558675 137.894603 158.241001 154.326854-1.738597 51.909254-38.950104 76.688613-38.950104 76.688613s46.948265 16.604166 97.289814-72.427566c0 0-0.258896-0.088004-0.694825-0.171915 9.476839-0.434905 18.866696-1.306762 27.996634-2.609431-12.171204-19.303648-19.038612-40.952714-19.038612-63.905472C443.448718 463.034798 520.484232 400.085094 617.774045 395.476123L617.774045 395.476123zM362.763071 421.647179c-14.34266 0-25.90602-11.564383-25.90602-25.823132 0-14.34573 11.56336-25.90602 25.90602-25.90602 14.262842 0 25.822109 11.56029 25.822109 25.90602C388.589272 410.082796 377.025912 421.647179 362.763071 421.647179L362.763071 421.647179zM467.272309 395.824047c0-14.34573 11.564383-25.90602 25.910113-25.90602 14.258749 0 25.823132 11.56029 25.823132 25.90602 0 14.262842-11.564383 25.823132-25.823132 25.823132C478.836693 421.647179 467.272309 410.082796 467.272309 395.824047L467.272309 395.824047zM467.272309 395.824047" fill="#ffffff" p-id="4121"></path><path d="M512.109494 92.853781c-231.702106 0-419.367253 187.665147-419.367253 419.148265 0 231.479025 187.665147 419.143149 419.367253 419.143149 231.479025 0 419.148265-187.664124 419.148265-419.143149C931.257759 280.518928 743.588519 92.853781 512.109494 92.853781L512.109494 92.853781zM512.109494 878.69666c-202.713888 0-366.918717-164.207899-366.918717-366.698706S309.395606 145.302317 512.109494 145.302317c202.490807 0 366.69973 164.204829 366.69973 366.695636C878.809223 714.491831 714.600301 878.69666 512.109494 878.69666L512.109494 878.69666zM512.109494 878.69666" fill="#ffffff" p-id="4122"></path></svg>