<svg xmlns="http://www.w3.org/2000/svg" width="256" height="256"><path fill-opacity=".016" d="M0 128.004v128.004l128.25-.254 128.25-.254.254-127.75L257.008 0H0v128.004m.485.496c0 70.4.119 99.053.265 63.672.146-35.38.146-92.98 0-128C.604 29.153.485 58.1.485 128.5" fill="#1976D2" fill-rule="evenodd"/><path fill-opacity=".43" d="M0 128.004v128.004l128.25-.254 128.25-.254.254-127.75L257.008 0H0v128.004m.485.496c0 70.4.119 99.053.265 63.672.146-35.38.146-92.98 0-128C.604 29.153.485 58.1.485 128.5M108.74 22.518c-41.737 7.894-74.577 38.939-85.011 80.365-3.13 12.426-3.13 37.808 0 50.234 4.963 19.706 14.202 35.94 28.708 50.446 14.506 14.506 30.74 23.745 50.446 28.708 12.426 3.13 37.808 3.13 50.234 0 19.706-4.963 35.94-14.202 50.446-28.708 20.016-20.016 29.907-42.605 31.115-71.063 2.18-51.381-30.562-95.4-80.678-108.466-11.143-2.905-33.889-3.667-45.26-1.516m5.51 2.478C87.1 28.831 61.696 43.821 44.915 65.907c-6.922 9.11-14.409 24.726-17.555 36.616-2.311 8.733-2.64 11.91-2.64 25.477 0 13.465.337 16.774 2.571 25.206 7.973 30.093 27.582 54.179 55.232 67.841 5.513 2.724 14.513 6.149 20 7.612 8.788 2.341 11.824 2.655 25.477 2.636 13.515-.019 16.778-.359 25.477-2.658 36.932-9.761 65.394-38.297 75.232-75.431 2.234-8.432 2.571-11.741 2.571-25.206 0-13.567-.329-16.744-2.64-25.477-9.782-36.966-38.736-65.813-75.389-75.111-10.879-2.76-28.736-3.866-39.001-2.416M45 110.5V135h5.845c8.744 0 9.155-.756 9.155-16.829 0-7.244.332-13.171.737-13.171.405 0 6.93 6.181 14.5 13.737L89 132.473V114.474l-14.263-14.237L60.475 86H45v24.5m47 0V135h15v-23.3c0-16.789-.335-23.635-1.2-24.5-.679-.679-3.933-1.2-7.5-1.2H92v24.5m30.016-12.29l-13.365 12.211 8.425 7.877c4.633 4.332 10.744 9.881 13.579 12.33l5.155 4.453 8.719-.291 8.72-.29-13.231-11.95-13.23-11.95 4.856-4.558c2.671-2.506 8.681-8.034 13.356-12.284l8.5-7.727-9.06-.015-9.059-.016-13.365 12.21m35.541-9.987c-.856 1.222-1.557 3.472-1.557 5V96h19.05c20.329 0 22.162.36 26.724 5.245 5.519 5.91 4.672 13.246-2.268 19.642L195.045 125H172v-10.809c0-13.697-.461-14.435-9.379-15.002L156 98.767V135h22.04c24.765 0 25.881-.256 33.342-7.652 10.056-9.969 10.141-23.758.207-33.692-7.227-7.228-9.017-7.656-31.992-7.656-20.034 0-20.518.049-22.04 2.223M70 143.814c-7.07 1.848-15.783 6.457-16.694 8.831-.314.819-.062 1.999.561 2.622.844.844 1.133.744 1.133-.393 0-4.359 11.1-9.663 22.163-10.591 11.306-.948 16.466 2.884 13.485 10.015-1.814 4.339-3.276 5.37-10.165 7.165-10.909 2.841-12.538 1.845-7.977-4.877 1.982-2.92 2.289-4.101 1.465-5.64-.573-1.07-1.363-1.945-1.756-1.944-.393.001-4.039 6.603-8.102 14.671-5.603 11.129-7.146 15.052-6.391 16.249 1.585 2.512 2.235 1.936 4.723-4.186C66.507 165.744 67.271 165 73.474 165c8.892 0 15.17-1.798 19.048-5.456 2.204-2.079 3.478-4.214 3.478-5.831 0-6.52 22.611-12.551 30.928-8.25 8.053 4.164 3.754 13.464-7.441 16.097-3.293.775-6.774 1.416-7.737 1.424-2.351.021-2.217-2.706.339-6.899 1.717-2.816 1.885-3.846.959-5.879-.618-1.355-1.287-2.294-1.487-2.085-.2.208-3.782 7.047-7.961 15.198-6.192 12.078-7.406 15.176-6.563 16.75 1.603 2.996 2.786 2.311 4.006-2.319.616-2.338 2.194-6.105 3.506-8.373l2.386-4.123 8.305-.436c12.774-.67 19.052-4.683 20.409-13.045.516-3.179.183-4.095-2.449-6.727-2.803-2.803-3.593-3.046-9.913-3.046-7.546 0-16.596 2-22.787 5.035-2.849 1.397-4.114 1.619-4.398.77-.218-.655-1.436-2.229-2.704-3.498-2.002-2.001-3.273-2.299-9.603-2.249-4.012.031-10.22.822-13.795 1.756m77.24 2.157c-7.969 3.778-10.143 5.759-8.766 7.986.387.626 1.943-.306 3.838-2.3 4.049-4.26 17.725-9.605 17.674-6.907-.008.412-2.596 3.85-5.75 7.64-5.34 6.414-6.427 7.183-15.736 11.14-7.701 3.273-10.073 4.735-10.32 6.36-.409 2.701.182 2.657 3.067-.228 2.223-2.223 11.364-6.392 12.185-5.556.213.217-1.822 4.889-4.522 10.383-5.187 10.553-5.926 14.352-3.304 16.974 1.276 1.276 1.905 1.358 3.063.397 1.275-1.058 1.27-1.314-.033-2.044-2.482-1.389-.267-7.049 7.983-20.396 4.943-7.997 7.31-9.691 12.905-9.237 3.174.258 3.978-.037 4.291-1.575.354-1.732-.058-1.833-4.851-1.198l-5.238.695 4.227-5.049c2.326-2.778 4.637-5.303 5.138-5.612.5-.309.909-1.66.909-3.003 0-2.209-.403-2.438-4.25-2.413-2.827.018-7.016 1.338-12.51 3.943m30.771 15.173c-1.651 2.278-4.092 6.441-5.425 9.25-1.46 3.077-3.642 5.821-5.492 6.905l-3.069 1.799.651-4.751.651-4.751-3.396 2.151c-1.868 1.183-3.583 2.736-3.81 3.452-.251.79.362.614 1.562-.449 2.846-2.522 3.19-2.223 2.59 2.25-.625 4.663.859 5.257 5 2 3.155-2.482 3.727-2.498 3.727-.107 0 3.785 3.175 3.352 7.655-1.045 4.558-4.474 6.625-4.732 3.839-.479-2.914 4.446-.532 4.835 2.815.46 4.261-5.57 5.691-5.925 5.691-1.412 0 4.235.828 4.459 4 1.083 3.072-3.27 4-3.154 4 .5 0 1.768.525 3 1.277 3 1.794 0 5.723-2.892 5.723-4.212 0-.604-.823-.353-1.829.557-2.578 2.333-3.171 2.082-3.171-1.345 0-3.576-1.638-3.859-5.365-.927L193 177.145v-3.072c0-3.447-1.391-3.889-4.777-1.516-1.246.872-2.223 1.092-2.223.5 0-2.177-2.971-.928-7 2.943-4.561 4.382-5.752 4.811-6.676 2.403-.389-1.015.34-2.382 2-3.75 3.131-2.58 9.676-13.297 9.676-15.844 0-3.103-2.857-1.989-5.989 2.335m-.652 4.371c-4.001 6.025-4.074 8.648-.092 3.301 4.415-5.931 6.005-8.816 4.858-8.816-.607 0-2.752 2.482-4.766 5.515M167 163.5c0 .825.45 1.5 1 1.5s1-.675 1-1.5-.45-1.5-1-1.5-1 .675-1 1.5" fill="#1976D2" fill-rule="evenodd"/><path fill-opacity=".105" d="M0 128.004v128.004l128.25-.254 128.25-.254.254-127.75L257.008 0H0v128.004m.485.496c0 70.4.119 99.053.265 63.672.146-35.38.146-92.98 0-128C.604 29.153.485 58.1.485 128.5M116.754 21.051C83.04 24.766 52.779 44.137 35.642 72.975 8.828 118.097 18.548 176.163 58.591 210.077c39.899 33.792 98.919 33.792 138.818 0 48.521-41.094 50.918-115.06 5.166-159.446-22.425-21.755-54.983-32.977-85.821-29.58M108 26.435C76.084 33.114 49.584 53.594 35.455 82.5 27.113 99.566 25.5 106.94 25.5 128c0 15.095.315 18.668 2.289 26 3.326 12.347 11.786 28.939 19.883 38.994 9.184 11.403 21.135 20.858 34.828 27.551 17.066 8.342 24.44 9.955 45.5 9.955s28.434-1.613 45.5-9.955c21.005-10.268 36.777-26.04 47.045-47.045 8.342-17.066 9.955-24.44 9.955-45.5s-1.613-28.434-9.955-45.5c-10.222-20.912-26.154-36.844-47.045-47.043-16.136-7.878-23.657-9.634-43-10.044-10.864-.23-18.086.098-22.5 1.022M44.233 110.25l.267 25.25 6.101-.004c9.292-.005 9.399-.197 9.399-16.856v-14.114L74.5 119 89 133.474v-20L74.737 99.237 60.475 85H43.966l.267 25.25M92 109.5v25.25c0 .412 3.487.75 7.75.75h7.75l.5-12.291.5-12.291 13.782 12.541L136.063 136h8.969c4.932 0 8.935-.338 8.896-.75-.04-.412-6.114-6.15-13.499-12.75l-13.425-12 5.512-5c3.033-2.75 9.076-8.15 13.431-12 4.354-3.85 7.947-7.338 7.985-7.75.037-.412-3.973-.75-8.911-.75h-8.979l-13.771 12.48-13.771 12.48-.5-10.572C107.394 86.581 106.228 85 97.389 85H92v24.5m67.5-23.305c-2.873 1.629-3.467 2.833-3.485 7.055L156 97h20.096c18.746 0 20.291.14 23.015 2.079 6.483 4.616 7.662 12.173 2.92 18.719-1.632 2.254-3.853 4.571-4.934 5.15-1.081.579-7.17 1.052-13.531 1.052H172v-10.943c0-10.175-.156-11.053-2.223-12.5-1.388-.973-4.389-1.557-8-1.557H156v37l21.25-.022c23.838-.025 25.866-.474 33.579-7.442 11.076-10.007 11.076-26.065 0-36.072-7.554-6.824-10.037-7.421-30.829-7.412-11.934.006-19.21.411-20.5 1.143m-85.481 56.284c-4.115.775-10.415 2.899-14 4.721-5.365 2.726-6.575 3.798-6.835 6.056-.399 3.457 1.545 3.588 2.836.191 1.299-3.417 9.467-7.083 19.128-8.585 6.829-1.061 7.917-.992 11.449.733 4.351 2.124 5.312 4.795 3.393 9.43-1.506 3.636-6.594 6.038-14.26 6.733l-6.02.546 2.741-5.037c2.298-4.221 2.553-5.39 1.578-7.213-.641-1.197-1.558-2.036-2.039-1.865-1.586.564-15.096 29.064-14.79 31.2.165 1.15 1.029 2.229 1.919 2.399 1.166.222 2.09-1.13 3.3-4.83.924-2.826 2.671-6.667 3.881-8.535 2.168-3.349 2.305-3.398 9.482-3.411 11.309-.019 16.975-3.032 20.333-10.812 2.211-5.12 6.671-7.488 17.432-9.256 8.318-1.367 13.014-.412 15.707 3.194 1.759 2.356 1.789 2.822.403 6.139-.902 2.161-2.79 4.257-4.74 5.266-3.578 1.85-14.919 3.254-14.913 1.846.002-.489.902-2.362 2-4.163 2.388-3.917 2.537-6.532.472-8.246-.838-.696-1.626-1.088-1.75-.873-.124.216-3.55 7.108-7.613 15.315-5.596 11.306-7.145 15.304-6.391 16.5 1.785 2.829 3.383 1.676 5.228-3.774 3.242-9.576 4.493-10.566 14.152-11.192 9.778-.634 15.273-2.885 18.012-7.376 2.277-3.734 2.436-9.349.349-12.329-3.833-5.473-19.405-5.041-32.615.905l-4.653 2.094-2.847-3.156c-3.543-3.927-9.374-4.677-20.329-2.615m82.981-.851c-.825.258-5.437 2.34-10.25 4.626-7.249 3.445-8.75 4.551-8.75 6.452 0 2.833 2.568 3.055 3.292.284.766-2.929 18.726-10.947 18.699-8.348-.005.472-2.817 3.949-6.251 7.727-5.49 6.042-7.387 7.37-15.741 11.024-7.488 3.276-9.567 4.626-9.819 6.381-.372 2.593 1.011 2.906 2.881.653 1.36-1.639 6.901-4.696 10.559-5.825 1.866-.576 1.532.519-2.789 9.122-3.822 7.608-4.846 10.64-4.621 13.674.335 4.5 2.916 6.924 5.012 4.705 1.016-1.076 1.022-1.447.028-1.811-2.912-1.068.052-8.91 8.156-21.577 4.614-7.214 7.798-9.454 11.465-8.07 3.452 1.303 5.129.696 5.129-1.858 0-1.835-.467-1.994-4.5-1.54-2.475.279-4.5.288-4.5.02 0-.267 2.25-2.948 5-5.957s5-6.02 5-6.691c0-2.918-3.753-4.321-8-2.991m22.096 17.915c-1.711 1.949-4.448 6.192-6.081 9.428-3.93 7.786-10.115 12.482-7.839 5.953 1.681-4.822-.271-5.852-4.696-2.477-1.986 1.515-3.349 3.017-3.029 3.337.32.321 1.115.05 1.766-.601 2.371-2.371 3.695-1.41 2.482 1.803-1.648 4.367.139 5.813 4.211 3.408 1.699-1.004 3.097-2.291 3.105-2.86.008-.569.582.087 1.275 1.457 1.871 3.698 4.104 3.551 8.667-.571 2.253-2.035 4.32-3.476 4.594-3.203.273.274-.189 1.067-1.027 1.763-1.497 1.243-2.152 5.02-.87 5.02.36 0 2.195-1.8 4.078-4 1.883-2.2 3.839-4 4.346-4 .507 0 .922 1.575.922 3.5 0 4.294.951 4.41 3.862.472 2.347-3.173 4.287-3.258 3.475-.151-.262 1 .167 2.352.952 3.004 1.13.937 1.981.751 4.07-.892 3.101-2.44 3.595-4.514.707-2.968-2.713 1.452-3.283 1.298-2.656-.715.299-.963.128-2.414-.382-3.226-.789-1.258-1.376-1.143-3.977.78-3.018 2.232-3.051 2.234-3.051.195 0-2.499-2.641-3.705-4.952-2.261-.928.579-2.781.848-4.118.596-1.855-.349-3.366.504-6.383 3.604-2.174 2.234-4.312 4.062-4.75 4.062-1.851 0-.553-3.467 2.737-7.311 4.187-4.891 8.92-14.145 7.999-15.636-1.072-1.735-2.168-1.233-5.437 2.49m-1.037 5.516c-1.859 2.724-3.182 5.152-2.939 5.394.243.243 1.962-1.788 3.821-4.512 1.859-2.724 3.182-5.152 2.939-5.394-.243-.243-1.962 1.788-3.821 4.512M167 163.5c0 .825.45 1.5 1 1.5s1-.675 1-1.5-.45-1.5-1-1.5-1 .675-1 1.5" fill="#1976D2" fill-rule="evenodd"/><path fill-opacity=".773" d="M0 128.004v128.004l128.25-.254 128.25-.254.254-127.75L257.008 0H0v128.004m.485.496c0 70.4.119 99.053.265 63.672.146-35.38.146-92.98 0-128C.604 29.153.485 58.1.485 128.5m112.1-107.393c-42.537 6.204-77.969 38.173-89.282 80.556-2.331 8.732-2.626 11.69-2.626 26.337 0 14.623.297 17.612 2.611 26.277 10.314 38.628 39.79 68.12 78.375 78.42 8.732 2.331 11.69 2.626 26.337 2.626s17.605-.295 26.337-2.626c31.556-8.423 57.382-29.793 71.114-58.845 18.998-40.194 11.579-86.703-19.122-119.863-11.21-12.108-28.198-22.938-44.638-28.457-14.535-4.879-33.98-6.632-49.106-4.425M115 25.6c-27.381 5.034-41.952 12.357-59.497 29.903-15.281 15.28-23.401 29.71-28.136 49.997-2.733 11.709-2.558 34.901.351 46.5 7.962 31.752 30.451 58.392 59.728 70.751 14.006 5.912 23.075 7.657 40.054 7.706 21.664.062 35.805-3.681 53.997-14.292 10.984-6.407 28.261-23.684 34.668-34.668C226.654 163.515 230.5 149.162 230.5 128s-3.846-35.515-14.335-53.497c-6.416-11-23.691-28.269-34.668-34.657-17.156-9.983-30.63-13.811-50.497-14.343-7.425-.199-14.625-.156-16 .097m-71 84.9V136h6.045c5.086 0 6.436-.39 8.5-2.455 2.35-2.35 2.455-2.998 2.455-15.236v-12.782l13.763 13.736c7.57 7.556 14.095 13.737 14.5 13.737.405 0 .737-4.168.737-9.263v-9.262L75.238 99.737 60.476 85H44v25.5m47 0V136h17V110.865l13.75 12.551 13.75 12.55 9.75.017c5.363.009 9.75-.139 9.75-.329s-6.128-5.899-13.617-12.687l-13.617-12.341 5.367-5.076c2.952-2.792 9.192-8.551 13.867-12.797l8.5-7.722-10-.001h-10l-13.75 12.522L108 110.074V99.537C108 86.161 107.161 85 97.5 85H91v25.5m67.223-23.943c-1.73 1.211-2.223 2.542-2.223 6V97h40.077l4.212 3.928c3.713 3.464 4.211 4.448 4.211 8.324 0 3.026-.764 5.51-2.454 7.976-4.041 5.897-6.458 6.772-18.7 6.77l-10.846-.001v-10.395c0-13.335-.881-14.602-10.155-14.602H156v37h21.532c24.329 0 25.543-.262 32.992-7.129 6.463-5.958 8.886-10.966 8.886-18.371 0-7.353-2.42-12.411-8.711-18.21-7.791-7.182-8.244-7.29-30.427-7.29-16.326 0-20.219.275-22.049 1.557m-85.861 55.937c-6.851 1.49-16.47 5.863-18.969 8.624-1.766 1.952-1.263 4.882.838 4.882.712 0 1.739-.977 2.282-2.172.543-1.194 2.112-2.984 3.487-3.977 6.767-4.889 26.623-6.425 29.683-2.296 1.709 2.307 1.051 6.977-1.359 9.639-2.753 3.042-17.332 6.456-17.32 4.056.002-.412.902-2.223 2-4.024 1.098-1.801 1.996-4.073 1.996-5.05 0-1.766-1.779-4.176-3.083-4.176-.376 0-4.115 6.771-8.31 15.047-6.365 12.559-7.448 15.381-6.549 17.061 1.723 3.221 3.955 1.789 5.82-3.736 3.174-9.399 3.909-10.003 12.92-10.621 9.853-.675 16.398-3.383 19.172-7.933 1.112-1.825 2.024-4.13 2.026-5.123.011-5.149 24.5-10.221 30.468-6.311 3.161 2.071 3.365 6.293.481 9.959-2.133 2.711-9.997 5.657-15.102 5.657-2.634 0-2.734-.157-1.749-2.748.575-1.512 1.706-3.478 2.513-4.371 1.203-1.328 1.248-2.104.252-4.29-.668-1.468-1.786-2.539-2.483-2.38-1.796.41-15.538 28.651-15.176 31.188.392 2.749 4.8 3.593 4.801.921 0-1.001 1.299-4.565 2.886-7.919l2.886-6.1 7.863-.548c14.434-1.006 21.364-5.76 21.364-14.655 0-6.277-2.92-9.192-9.876-9.86-6.538-.628-17.362 1.305-23.87 4.263-5.125 2.33-5.269 2.34-6.279.452-2.586-4.832-11.378-6.12-23.613-3.459m74.594 3.209c-5.755 2.919-9.583 5.483-9.78 6.55-.579 3.132 2.381 2.901 5.959-.465 3.453-3.248 12.733-7.332 14.968-6.587.637.212-1.327 3.307-4.392 6.92-4.973 5.861-6.476 6.926-14.578 10.323-9.66 4.051-13.273 6.816-11.381 8.708.807.807 1.867.506 3.927-1.114 2.696-2.121 8.69-5.038 10.352-5.038.433 0-.946 3.35-3.065 7.444-5.669 10.955-6.661 14.847-4.588 18.011 1.869 2.851 3.799 3.242 5.555 1.126.924-1.113.837-1.611-.402-2.304-1.43-.8-1.435-1.297-.055-5.208.839-2.378 3.875-8.155 6.746-12.838 5.74-9.359 9.2-11.907 13.508-9.944 1.85.843 2.687.725 3.971-.559 1.352-1.353 1.407-1.893.325-3.197-.967-1.165-2.234-1.395-4.914-.893-3.432.642-3.54.581-2.166-1.231.795-1.049 2.971-3.54 4.835-5.537 4.733-5.068 4.245-8.258-1.325-8.667-3.208-.236-6.001.694-13.5 4.5m31.968 13.379c-1.584 1.695-4.313 5.993-6.064 9.552-2.725 5.533-5.173 8.366-7.231 8.366-.277 0-.248-1.575.065-3.5.398-2.452.19-3.5-.695-3.5-2.163 0-7.999 4.089-7.999 5.605 0 1.21.392 1.184 2.451-.165l2.45-1.605-.578 3.565c-.752 4.631 1.603 5.77 5.687 2.751 2.833-2.095 2.873-2.096 3.495-.135.979 3.086 4.497 2.381 8.817-1.766l3.906-3.75-1.61 3.193c-2.546 5.049.049 5.335 4.105.452 4.073-4.904 5.448-5.248 4.63-1.16-.862 4.311 1.848 5.036 5.082 1.359l2.502-2.844.031 2.781c.046 4.003 2.6 4.507 6.056 1.196 3.137-3.005 3.02-5.732-.123-2.887-1.823 1.649-1.901 1.61-1.901-.966 0-3.398-2.292-4.318-5.508-2.211-2.364 1.55-2.492 1.533-2.492-.331 0-2.839-1.733-3.487-4.492-1.679-1.477.968-2.639 1.194-3.015.586-1.056-1.708-2.277-1.122-7.707 3.701-3.81 3.384-5.364 4.262-5.578 3.153-.163-.846.987-2.911 2.555-4.589 3.271-3.501 9.237-14.252 9.237-16.644 0-2.581-2.961-1.864-6.076 1.472m-12.588 3.485c-.791 2.062 1.282 4.215 2.697 2.8 1.145-1.145.281-4.367-1.171-4.367-.509 0-1.195.705-1.526 1.567m12.896 1.183c-2.589 3.739-3.43 5.25-2.924 5.25.234 0 1.617-1.8 3.073-4 2.959-4.471 2.83-5.552-.149-1.25" fill="#1976D2" fill-rule="evenodd"/></svg>